<?xml version="1.0" encoding="iso-8859-1"?>
<!-- Generator: Adobe Illustrator 24.1.2, SVG Export Plug-In . SVG Version: 6.00 Build 0)  -->
<svg version="1.1" xmlns="http://www.w3.org/2000/svg" xmlns:xlink="http://www.w3.org/1999/xlink" x="0px" y="0px"
	 viewBox="0 0 48 48" style="enable-background:new 0 0 48 48;" xml:space="preserve">
<g id="Layer_10" style="display:none;">
	<g style="display:inline;opacity:0.05;">
		<g>
			<circle style="fill:#FFFFFF;" cx="24" cy="24" r="19.5"/>
			<path d="M24,5c10.477,0,19,8.523,19,19s-8.523,19-19,19S5,34.477,5,24S13.523,5,24,5 M24,4C12.954,4,4,12.954,4,24
				s8.954,20,20,20s20-8.954,20-20S35.046,4,24,4L24,4z"/>
		</g>
		<g>
			<rect x="6.5" y="6.5" style="fill:#FFFFFF;" width="35" height="35"/>
			<path d="M41,7v34H7V7H41 M42,6H6v36h36V6L42,6z"/>
		</g>
	</g>
</g>
<g id="bubbles">
</g>
<g id="dotted">
</g>
<g id="clipart">
</g>
<g id="two_x5F_tone">
</g>
<g id="grdnt">
</g>
<g id="cute">
</g>
<g id="ios_x5F_out">
</g>
<g id="ios_x5F_filled">
</g>
<g id="fluent">
	<path style="fill:#2395EC;" d="M47.527,19.847c-0.13-0.102-1.345-1.007-3.908-1.007c-0.677,0.003-1.352,0.06-2.019,0.171
		c-0.496-3.354-3.219-4.93-3.345-5.003l-0.688-0.392l-0.453,0.644c-0.567,0.866-1.068,1.76-1.311,2.763
		c-0.459,1.915-0.18,3.713,0.806,5.25C35.417,22.928,33.386,22.986,33,23H1.582c-0.826,0.001-1.496,0.66-1.501,1.474
		c-0.037,2.733,0.353,5.553,1.306,8.119c1.089,2.818,2.71,4.894,4.818,6.164C8.567,40.184,12.405,41,16.756,41
		c1.965,0.006,3.927-0.169,5.859-0.524c2.686-0.487,5.271-1.413,7.647-2.74c1.958-1.119,3.72-2.542,5.219-4.215
		c2.505-2.798,3.997-5.913,5.107-8.682c0.149,0,0.298,0,0.442,0c2.743,0,4.429-1.083,5.359-1.99
		c0.618-0.579,1.101-1.284,1.414-2.065L48,20.216L47.527,19.847z"/>
	<path style="fill:#2395EC;" d="M8,22H5c-0.552,0-1-0.448-1-1v-3c0-0.552,0.448-1,1-1h3c0.552,0,1,0.448,1,1v3
		C9,21.552,8.552,22,8,22z"/>
	<path style="fill:#2395EC;" d="M14,22h-3c-0.552,0-1-0.448-1-1v-3c0-0.552,0.448-1,1-1h3c0.552,0,1,0.448,1,1v3
		C15,21.552,14.552,22,14,22z"/>
	<path style="fill:#2395EC;" d="M20,22h-3c-0.552,0-1-0.448-1-1v-3c0-0.552,0.448-1,1-1h3c0.552,0,1,0.448,1,1v3
		C21,21.552,20.552,22,20,22z"/>
	<path style="fill:#2395EC;" d="M26,22h-3c-0.552,0-1-0.448-1-1v-3c0-0.552,0.448-1,1-1h3c0.552,0,1,0.448,1,1v3
		C27,21.552,26.552,22,26,22z"/>
	<path style="fill:#2395EC;" d="M14,16h-3c-0.552,0-1-0.448-1-1v-3c0-0.552,0.448-1,1-1h3c0.552,0,1,0.448,1,1v3
		C15,15.552,14.552,16,14,16z"/>
	<path style="fill:#2395EC;" d="M20,16h-3c-0.552,0-1-0.448-1-1v-3c0-0.552,0.448-1,1-1h3c0.552,0,1,0.448,1,1v3
		C21,15.552,20.552,16,20,16z"/>
	<path style="fill:#2395EC;" d="M26,16h-3c-0.552,0-1-0.448-1-1v-3c0-0.552,0.448-1,1-1h3c0.552,0,1,0.448,1,1v3
		C27,15.552,26.552,16,26,16z"/>
	<path style="fill:#2395EC;" d="M26,10h-3c-0.552,0-1-0.448-1-1V6c0-0.552,0.448-1,1-1h3c0.552,0,1,0.448,1,1v3
		C27,9.552,26.552,10,26,10z"/>
	<path style="fill:#2395EC;" d="M32,22h-3c-0.552,0-1-0.448-1-1v-3c0-0.552,0.448-1,1-1h3c0.552,0,1,0.448,1,1v3
		C33,21.552,32.552,22,32,22z"/>
</g>
<g id="cloud">
</g>
<g id="color">
</g>
</svg>