<svg xmlns="http://www.w3.org/2000/svg" width="48" height="48" fill="none" viewBox="0 0 48 48" id="google-chrome"><path fill="url(#paint0_linear_147648_1652)" d="M44.7796 11.9992C42.673 8.35095 39.6433 5.32145 35.9949 3.21516C32.3464 1.10887 28.2079 0 23.9951 0C19.7824 0 15.6438 1.10887 11.9954 3.21516C8.34697 5.32145 5.31723 8.35095 3.21066 11.9992L4.65069 37.9198L44.7796 11.9992Z"></path><path fill="url(#paint1_linear_147648_1652)" d="M13.6077 29.9996L3.21546 11.9992C1.109 15.6477 2.67575e-05 19.7864 4.84201e-10 23.9993C-2.67565e-05 28.2122 1.10889 32.3509 3.21531 35.9995C5.32172 39.648 8.35141 42.6778 11.9999 44.7843C15.6483 46.8908 19.787 47.9999 23.9999 48L47.5204 23.9995L13.6077 29.9996Z"></path><path fill="url(#paint2_linear_147648_1652)" d="M34.3921 29.9996L23.9999 48C28.2124 47.999 32.3505 46.8894 35.9983 44.7825C39.6461 42.6756 42.6751 39.6458 44.7809 35.9974C46.8868 32.349 47.9953 28.2106 47.995 23.9981C47.9948 19.7856 46.8858 15.6474 44.7796 11.9992H23.9999L34.3921 29.9996Z"></path><path fill="#fff" d="M23.9999 35.9997C25.5758 35.9997 27.1363 35.6893 28.5922 35.0863C30.0481 34.4832 31.371 33.5993 32.4854 32.4849C33.5997 31.3706 34.4836 30.0477 35.0867 28.5918C35.6898 27.1358 36.0002 25.5754 36.0002 23.9995C36.0002 22.4236 35.6898 20.8631 35.0867 19.4072C34.4836 17.9512 33.5997 16.6283 32.4854 15.514C31.371 14.3997 30.0481 13.5157 28.5922 12.9127C27.1363 12.3096 25.5758 11.9992 23.9999 11.9992C20.8172 11.9992 17.7649 13.2635 15.5144 15.514C13.2639 17.7645 11.9996 20.8168 11.9996 23.9995C11.9996 27.1821 13.2639 30.2344 15.5144 32.4849C17.7649 34.7354 20.8172 35.9997 23.9999 35.9997Z"></path><path fill="#1A73E8" d="M23.9999 33.5037C25.248 33.5037 26.4839 33.2578 27.637 32.7802C28.7901 32.3026 29.8378 31.6025 30.7204 30.7199C31.6029 29.8374 32.303 28.7897 32.7806 27.6366C33.2583 26.4834 33.5041 25.2476 33.5041 23.9994C33.5041 22.7513 33.2583 21.5154 32.7806 20.3623C32.303 19.2092 31.6029 18.1615 30.7204 17.279C29.8378 16.3964 28.7901 15.6963 27.637 15.2187C26.4839 14.7411 25.248 14.4952 23.9999 14.4952C21.4792 14.4952 19.0618 15.4966 17.2794 17.279C15.497 19.0613 14.4957 21.4788 14.4957 23.9994C14.4957 26.5201 15.497 28.9376 17.2794 30.7199C19.0618 32.5023 21.4792 33.5037 23.9999 33.5037V33.5037Z"></path><defs><linearGradient id="paint0_linear_147648_1652" x1="3.215" x2="44.78" y1="14.999" y2="14.999" gradientUnits="userSpaceOnUse"><stop stop-color="#D93025"></stop><stop offset="1" stop-color="#EA4335"></stop></linearGradient><linearGradient id="paint1_linear_147648_1652" x1="26.597" x2="5.812" y1="46.498" y2="10.497" gradientUnits="userSpaceOnUse"><stop stop-color="#1E8E3E"></stop><stop offset="1" stop-color="#34A853"></stop></linearGradient><linearGradient id="paint2_linear_147648_1652" x1="20.496" x2="41.28" y1="48" y2="12.062" gradientUnits="userSpaceOnUse"><stop stop-color="#FCC934"></stop><stop offset="1" stop-color="#FBBC04"></stop></linearGradient></defs></svg>