<svg viewBox="0 0 48 48" xmlns="http://www.w3.org/2000/svg"><g><g><g><polygon points="19.985,23.5 44.75,23.5 47.75,20.5 47.75,15.1 22.985,15.1 19.985,18.1" style="fill:#bfbfbf;stroke:none" /><polygon points="21.485,23.5 21.485,22 43.25,22 43.25,19.6 47.75,15.1 47.75,20.5 44.75,23.5" style="fill:#808080;stroke:none" /><polygon points="19.985,22 21.485,22 21.485,19.6 43.25,19.6 47.75,15.1 46.25,15.1 43.25,18.1 19.985,18.1" style="fill:#ffffff;stroke:none" /><rect height="1.05" style="fill:#000000;stroke:none" width="7.5" x="34.235" y="20.95" /><polygon points="19.985,23.5 44.75,23.5 47.75,20.5 47.75,15.1 22.985,15.1 19.985,18.1" style="fill:none;stroke:#000000;stroke-linecap:round;stroke-linejoin:round;stroke-width:0.5" /></g><g><polygon points="23.885,17.5 41.135,17.5 44.135,14.5 44.135,0.25 26.885,0.25 23.885,3.25" style="fill:#bfbfbf;stroke:none" /><polygon points="23.885,17.5 24.635,16.75 40.385,16.75 40.385,4 44.135,0.25 44.135,14.5 41.135,17.5" style="fill:#808080;stroke:none" /><polygon points="23.885,17.5 24.635,16.75 24.635,4 40.385,4 41.135,3.25 23.885,3.25" style="fill:#ffffff;stroke:none" /><polygon points="24.635,15.25 25.385,14.5 25.385,4.75 39.635,4.75 40.385,4 24.635,4" style="fill:#808080;stroke:none" /><polygon points="24.635,15.25 25.385,14.5 39.635,14.5 39.635,4.75 40.385,4 40.385,15.25" style="fill:#ffffff;stroke:none" /><rect height="9.75" style="fill:#0000ff;stroke:none" width="14.25" x="25.385" y="4.75" /><polygon points="25.385,14.5 26.135,14.5 26.135,5.5 39.635,5.5 39.635,4.75 25.385,4.75" style="fill:#000080;stroke:none" /><polygon points="23.885,17.5 41.135,17.5 44.135,14.5 44.135,0.25 26.885,0.25 23.885,3.25" style="fill:none;stroke:#000000;stroke-linecap:round;stroke-linejoin:round;stroke-width:0.5" /></g></g><g><g><polygon points="0.25,47.75 25.015,47.75 28.015,44.75 28.015,39.35 3.25,39.35 0.25,42.35" style="fill:#bfbfbf;stroke:none" /><polygon points="1.75,47.75 1.75,46.25 23.515,46.25 23.515,43.85 28.015,39.35 28.015,44.75 25.015,47.75" style="fill:#808080;stroke:none" /><polygon points="0.25,46.25 1.75,46.25 1.75,43.85 23.515,43.85 28.015,39.35 26.515,39.35 23.515,42.35 0.25,42.35" style="fill:#ffffff;stroke:none" /><rect height="1.05" style="fill:#000000;stroke:none" width="7.5" x="14.5" y="45.2" /><polygon points="0.25,47.75 25.015,47.75 28.015,44.75 28.015,39.35 3.25,39.35 0.25,42.35" style="fill:none;stroke:#000000;stroke-linecap:round;stroke-linejoin:round;stroke-width:0.5" /></g><g><polygon points="4.15,41.75 21.4,41.75 24.4,38.75 24.4,24.5 7.15,24.5 4.15,27.5" style="fill:#bfbfbf;stroke:none" /><polygon points="4.15,41.75 4.9,41 20.65,41 20.65,28.25 24.4,24.5 24.4,38.75 21.4,41.75" style="fill:#808080;stroke:none" /><polygon points="4.15,41.75 4.9,41 4.9,28.25 20.65,28.25 21.4,27.5 4.15,27.5" style="fill:#ffffff;stroke:none" /><polygon points="4.9,39.5 5.65,38.75 5.65,29 19.9,29 20.65,28.25 4.9,28.25" style="fill:#808080;stroke:none" /><polygon points="4.9,39.5 5.65,38.75 19.9,38.75 19.9,29 20.65,28.25 20.65,39.5" style="fill:#ffffff;stroke:none" /><rect height="9.75" style="fill:#0000ff;stroke:none" width="14.25" x="5.65" y="29" /><polygon points="5.65,38.75 6.4,38.75 6.4,29.75 19.9,29.75 19.9,29 5.65,29" style="fill:#000080;stroke:none" /><polygon points="4.15,41.75 21.4,41.75 24.4,38.75 24.4,24.5 7.15,24.5 4.15,27.5" style="fill:none;stroke:#000000;stroke-linecap:round;stroke-linejoin:round;stroke-width:0.5" /></g></g><g><polygon points="23.4104,23.625 13.15,34.25 29.9755,20.625 22.6246,20.625 32.885,10 16.0595,23.625" style="stroke:#000000;stroke-linecap:round;stroke-linejoin:round;stroke-width:1" /><polygon points="23.4104,23.625 13.15,34.25 29.9755,20.625 22.6246,20.625 32.885,10 16.0595,23.625" style="fill:#ffff00" /></g></g></svg>