<svg id="Layer_1" data-name="Layer 1" xmlns="http://www.w3.org/2000/svg" viewBox="0 0 280 300"><defs><style>.cls-1{fill:#302f7d;}</style></defs><path class="cls-1" d="M99.36,175.82v.1a3,3,0,0,1-.7-.48,2.37,2.37,0,0,1-.61-1,3.27,3.27,0,0,1-.22-1.15,3,3,0,0,1,.41-1.56,2.54,2.54,0,0,1,1.09-1v.13a1.33,1.33,0,0,0-.54.51,1.9,1.9,0,0,0-.32.83,5.77,5.77,0,0,0,0,2.14,3.88,3.88,0,0,0,.16.6,1.41,1.41,0,0,0,.28.45,2.49,2.49,0,0,0,.45.41"/><path class="cls-1" d="M100.64,174.45a1.77,1.77,0,0,0,.57.07,1.43,1.43,0,0,0,1.05-.45,1.72,1.72,0,0,0,.42-1.25,1.76,1.76,0,0,0-.42-1.24,1.45,1.45,0,0,0-1.08-.45,5.27,5.27,0,0,0-.58.07v3.25Zm-1.06.26v-.1h.13a.43.43,0,0,0,.35-.16,1,1,0,0,0,.07-.41v-2.43a1.14,1.14,0,0,0-.07-.44.45.45,0,0,0-.32-.13h-.13v-.1h1.5a3.52,3.52,0,0,1,1.28.19,1.65,1.65,0,0,1,.7.64,1.83,1.83,0,0,1,.26,1,1.89,1.89,0,0,1-.48,1.31,2.11,2.11,0,0,1-1.63.57H99.58Z"/><path class="cls-1" d="M104.14,173h1.15a.88.88,0,0,0-.06-.35.79.79,0,0,0-.19-.25.48.48,0,0,0-.29-.1.53.53,0,0,0-.41.19,1.3,1.3,0,0,0-.2.51m0,.16a1.31,1.31,0,0,0,.29.89.76.76,0,0,0,.64.32.59.59,0,0,0,.41-.12,1.12,1.12,0,0,0,.32-.48l.1.06a1.49,1.49,0,0,1-.32.7.83.83,0,0,1-.7.32,1,1,0,0,1-.77-.35,1.39,1.39,0,0,1-.32-1,1.49,1.49,0,0,1,.32-1,1.1,1.1,0,0,1,.83-.38.93.93,0,0,1,.7.29,1,1,0,0,1,.29.76h-1.79Z"/><path class="cls-1" d="M106.63,173h1.15a.88.88,0,0,0-.06-.35.79.79,0,0,0-.19-.25.51.51,0,0,0-.29-.1.57.57,0,0,0-.42.19,1.29,1.29,0,0,0-.19.51m0,.16a1.31,1.31,0,0,0,.29.89.76.76,0,0,0,.64.32.59.59,0,0,0,.41-.12,1.12,1.12,0,0,0,.32-.48l.1.06a1.49,1.49,0,0,1-.32.7.85.85,0,0,1-.7.32,1,1,0,0,1-.77-.35,1.39,1.39,0,0,1-.32-1,1.49,1.49,0,0,1,.32-1,1.08,1.08,0,0,1,.83-.38.93.93,0,0,1,.7.29,1,1,0,0,1,.29.76h-1.79Z"/><path class="cls-1" d="M109.44,172.63l.32-.32a1.75,1.75,0,0,1,.25-.16,1.07,1.07,0,0,1,.29-.06.64.64,0,0,1,.42.13.73.73,0,0,1,.22.41,1.79,1.79,0,0,1,.48-.44.8.8,0,0,1,.41-.1.58.58,0,0,1,.35.1.76.76,0,0,1,.26.35,1.84,1.84,0,0,1,.06.51v1.08a.84.84,0,0,0,0,.32l.1.1a.59.59,0,0,0,.26,0v.09h-1.25v-.09h.06a.62.62,0,0,0,.26-.06l.1-.13v-1.34a1.35,1.35,0,0,0-.07-.45.36.36,0,0,0-.35-.19,1.07,1.07,0,0,0-.29.06,1.55,1.55,0,0,0-.35.29v1.37a.76.76,0,0,0,0,.32l.1.1a.67.67,0,0,0,.29,0v.09h-1.28v-.09a.7.7,0,0,0,.29-.06.19.19,0,0,0,.09-.16V173a.78.78,0,0,0-.09-.44.4.4,0,0,0-.35-.19,1,1,0,0,0-.29.06,1.13,1.13,0,0,0-.35.29v1.37a.76.76,0,0,0,0,.32.73.73,0,0,0,.1.13s.13,0,.28,0v.09h-1.24v-.09a.61.61,0,0,0,.26,0s.09-.07.09-.13a.87.87,0,0,0,0-.32v-1a2.21,2.21,0,0,0,0-.54.16.16,0,0,0-.06-.13s-.07,0-.13,0a.49.49,0,0,0-.19,0l0-.1.76-.31h.13v.63Z"/><path class="cls-1" d="M113.49,173h1.15a.88.88,0,0,0-.06-.35.82.82,0,0,0-.2-.25.46.46,0,0,0-.28-.1.57.57,0,0,0-.42.19,1.29,1.29,0,0,0-.19.51m0,.16a1.31,1.31,0,0,0,.29.89.76.76,0,0,0,.64.32.59.59,0,0,0,.41-.12,1.22,1.22,0,0,0,.32-.48l.1.06a1.59,1.59,0,0,1-.32.7.85.85,0,0,1-.71.32,1,1,0,0,1-.76-.35,1.39,1.39,0,0,1-.32-1,1.49,1.49,0,0,1,.32-1,1.08,1.08,0,0,1,.83-.38.93.93,0,0,1,.7.29,1,1,0,0,1,.29.76h-1.79Z"/><path class="cls-1" d="M117.35,174.23v-1.31a.65.65,0,0,0-.09-.35c-.07-.1-.13-.19-.23-.22a.45.45,0,0,0-.25-.1.47.47,0,0,0-.42.22,1.32,1.32,0,0,0-.25.86,1.35,1.35,0,0,0,.25.87.59.59,0,0,0,1,0m0,.19a2.52,2.52,0,0,1-.35.29.92.92,0,0,1-.38.09.89.89,0,0,1-.7-.35,1.33,1.33,0,0,1-.32-.89,1.54,1.54,0,0,1,.35-1,1,1,0,0,1,.86-.45.66.66,0,0,1,.54.23v-.48a2.06,2.06,0,0,0,0-.54.16.16,0,0,0-.06-.13.14.14,0,0,0-.1,0,.57.57,0,0,0-.19,0l0-.1.76-.32h.13v2.94a2.11,2.11,0,0,0,0,.54.16.16,0,0,0,.07.13.11.11,0,0,0,.09,0l.19,0,0,.09-.73.32h-.13v-.38Z"/><path class="cls-1" d="M120.51,171.33v.82h.57v.2h-.57V174a.62.62,0,0,0,.06.32.19.19,0,0,0,.19.1.24.24,0,0,0,.16-.06.33.33,0,0,0,.13-.16h.1a.8.8,0,0,1-.29.41.51.51,0,0,1-.35.13.63.63,0,0,1-.26-.07c-.09,0-.12-.12-.19-.19a1.27,1.27,0,0,1-.06-.41v-1.72h-.35v-.07a.83.83,0,0,0,.32-.22,3.57,3.57,0,0,0,.28-.35l.2-.38Z"/><path class="cls-1" d="M122.49,172.28a.48.48,0,0,0-.29.1.46.46,0,0,0-.22.32,1.32,1.32,0,0,0-.1.57,1.8,1.8,0,0,0,.22,1,.74.74,0,0,0,.58.41.5.5,0,0,0,.44-.22,1.25,1.25,0,0,0,.16-.77,1.91,1.91,0,0,0-.28-1.08.67.67,0,0,0-.51-.29m.06-.19a1.19,1.19,0,0,1,.93.45,1.39,1.39,0,0,1,.28.86,1.9,1.9,0,0,1-.16.7,1,1,0,0,1-.44.51,1.14,1.14,0,0,1-.64.19,1.08,1.08,0,0,1-.89-.44,1.38,1.38,0,0,1-.29-.87,1.82,1.82,0,0,1,.16-.7,1.24,1.24,0,0,1,.44-.51,1.22,1.22,0,0,1,.61-.19"/><path class="cls-1" d="M126.22,172.79v1.53a1.54,1.54,0,0,0,.29.23,1,1,0,0,0,.32.06.63.63,0,0,0,.47-.29,1.35,1.35,0,0,0,.23-.79,1.16,1.16,0,0,0-.23-.77.55.55,0,0,0-.47-.25.94.94,0,0,0-.29.06.76.76,0,0,0-.32.22m0-.19a1,1,0,0,1,.8-.51.89.89,0,0,1,.67.35,1.4,1.4,0,0,1,.28.93,1.43,1.43,0,0,1-.44,1.08,1.33,1.33,0,0,1-.86.35,2.32,2.32,0,0,1-.45-.06,1.36,1.36,0,0,1-.45-.26v-2.64a2.21,2.21,0,0,0,0-.55.16.16,0,0,0-.06-.12.11.11,0,0,0-.1,0,.33.33,0,0,0-.19,0l0-.1.76-.32h.13v1.85Z"/><path class="cls-1" d="M128.77,173h1.15a.88.88,0,0,0-.06-.35.82.82,0,0,0-.2-.25.46.46,0,0,0-.28-.1.57.57,0,0,0-.42.19,1.29,1.29,0,0,0-.19.51m0,.16a1.31,1.31,0,0,0,.29.89.76.76,0,0,0,.64.32.59.59,0,0,0,.41-.12,1.22,1.22,0,0,0,.32-.48l.1.06a1.59,1.59,0,0,1-.32.7.85.85,0,0,1-.71.32,1,1,0,0,1-.76-.35,1.39,1.39,0,0,1-.32-1,1.49,1.49,0,0,1,.32-1,1.08,1.08,0,0,1,.83-.38.93.93,0,0,1,.7.29,1,1,0,0,1,.29.76h-1.79Z"/><path class="cls-1" d="M134.74,171v-.1H136v.1h-.12a.39.39,0,0,0-.35.19.82.82,0,0,0-.07.41v1.54a3.48,3.48,0,0,1-.09.89,1.1,1.1,0,0,1-.45.54,1.47,1.47,0,0,1-.89.22,1.52,1.52,0,0,1-.93-.22,1.07,1.07,0,0,1-.45-.57,3.17,3.17,0,0,1-.09-.93v-1.47a.64.64,0,0,0-.1-.44.4.4,0,0,0-.32-.1h-.09V171h1.59v.09h-.12a.36.36,0,0,0-.32.16,1,1,0,0,0-.07.42v1.65a2.46,2.46,0,0,0,0,.52.84.84,0,0,0,.44.7,1.14,1.14,0,0,0,.48.09,1.29,1.29,0,0,0,.64-.16.75.75,0,0,0,.38-.41,2.45,2.45,0,0,0,.1-.86v-1.53a1,1,0,0,0-.07-.45.36.36,0,0,0-.32-.13h-.12Z"/><path class="cls-1" d="M137,172.63a1.22,1.22,0,0,1,.83-.54.58.58,0,0,1,.35.1.53.53,0,0,1,.23.35,1.84,1.84,0,0,1,.06.51v1.08a.76.76,0,0,0,0,.32s.07.1.1.1a.5.5,0,0,0,.25,0v.09h-1.24v-.09h.06a.55.55,0,0,0,.26-.06,1.14,1.14,0,0,0,.09-.16v-1.31a1.05,1.05,0,0,0-.09-.51.34.34,0,0,0-.29-.16.89.89,0,0,0-.64.35v1.34c0,.16,0,.29,0,.32a.73.73,0,0,0,.09.13s.13,0,.29,0v.09H136.2v-.09h.07c.13,0,.22,0,.25-.1a.9.9,0,0,0,.07-.38v-1a1.78,1.78,0,0,0,0-.57.16.16,0,0,0-.06-.13s-.06,0-.13,0a.44.44,0,0,0-.19,0l0-.1.77-.31H137Z"/><path class="cls-1" d="M139.74,170.75a.28.28,0,0,1,.2.1.23.23,0,0,1,.06.19.36.36,0,0,1-.06.19.24.24,0,0,1-.39,0,.28.28,0,0,1-.09-.19.26.26,0,0,1,.09-.19.27.27,0,0,1,.19-.1m.23,1.34v2a.84.84,0,0,0,0,.32.28.28,0,0,0,.1.13s.12,0,.25,0v.1h-1.21v-.1a.54.54,0,0,0,.25,0,.28.28,0,0,0,.1-.13.84.84,0,0,0,0-.32v-1a2.3,2.3,0,0,0,0-.54.2.2,0,0,0-.06-.13.18.18,0,0,0-.13,0,.47.47,0,0,0-.19,0l0-.09.77-.32H140Z"/><path class="cls-1" d="M140.54,172.15h1.18v.1h-.06a.26.26,0,0,0-.16.06.3.3,0,0,0-.06.13.73.73,0,0,0,.06.22l.57,1.41.58-1.47a1.26,1.26,0,0,0,.06-.22s0-.07,0-.07l-.06-.06h-.2v-.1h.83v.1a.28.28,0,0,0-.19.06.67.67,0,0,0-.16.29l-.89,2.2h-.1l-.89-2.14a.5.5,0,0,0-.13-.22l-.12-.09s-.1,0-.2,0v-.16Z"/><path class="cls-1" d="M143.89,173H145a.88.88,0,0,0-.06-.35,1,1,0,0,0-.19-.25.51.51,0,0,0-.29-.1.57.57,0,0,0-.42.19,1.29,1.29,0,0,0-.19.51m0,.16a1.31,1.31,0,0,0,.29.89.76.76,0,0,0,.64.32.59.59,0,0,0,.41-.12,1.22,1.22,0,0,0,.32-.48l.1.06a1.59,1.59,0,0,1-.32.7.85.85,0,0,1-.7.32,1,1,0,0,1-.77-.35,1.39,1.39,0,0,1-.32-1,1.49,1.49,0,0,1,.32-1,1.08,1.08,0,0,1,.83-.38.93.93,0,0,1,.7.29,1,1,0,0,1,.29.76h-1.79Z"/><path class="cls-1" d="M146.7,172.09v.57c.22-.38.41-.57.64-.57a.33.33,0,0,1,.25.1.26.26,0,0,1,.1.22.37.37,0,0,1-.07.19.31.31,0,0,1-.16.06.46.46,0,0,1-.22-.09.3.3,0,0,0-.19-.1s-.06,0-.1.07a1,1,0,0,0-.25.38v1.21a.82.82,0,0,0,.06.32.24.24,0,0,0,.13.13.62.62,0,0,0,.26.06v.1h-1.28v-.1a.7.7,0,0,0,.29-.06.36.36,0,0,0,.09-.13v-1.24a2.21,2.21,0,0,0,0-.55.16.16,0,0,0-.06-.12.18.18,0,0,0-.13,0,.42.42,0,0,0-.19,0l0-.1.76-.32h.13Z"/><path class="cls-1" d="M149.44,172.09V173h-.09a1.07,1.07,0,0,0-.26-.54.57.57,0,0,0-.41-.16.49.49,0,0,0-.32.1.37.37,0,0,0-.13.22.33.33,0,0,0,.1.25,1.14,1.14,0,0,0,.35.26l.41.19a.78.78,0,0,1,.29,1.31.9.9,0,0,1-.58.22,1.72,1.72,0,0,1-.51-.09.23.23,0,0,0-.16,0s-.06,0-.09.07h-.1v-.93h.1a1.17,1.17,0,0,0,.29.58.66.66,0,0,0,.47.19.49.49,0,0,0,.32-.1.37.37,0,0,0,.13-.28.39.39,0,0,0-.13-.32,1.65,1.65,0,0,0-.54-.32,1.65,1.65,0,0,1-.51-.35.64.64,0,0,1-.13-.42.6.6,0,0,1,.23-.51.74.74,0,0,1,.54-.22,1.83,1.83,0,0,1,.35.06.61.61,0,0,0,.19,0s.06,0,.06,0,0,0,.07-.09h.06Z"/><path class="cls-1" d="M150.65,170.75a.28.28,0,0,1,.2.1.23.23,0,0,1,.06.19.36.36,0,0,1-.06.19.24.24,0,0,1-.39,0,.28.28,0,0,1-.09-.19.26.26,0,0,1,.09-.19.27.27,0,0,1,.19-.1m.23,1.34v2a.84.84,0,0,0,0,.32.28.28,0,0,0,.1.13s.12,0,.25,0v.1h-1.21v-.1a.54.54,0,0,0,.25,0,.28.28,0,0,0,.1-.13.84.84,0,0,0,0-.32v-1a2.3,2.3,0,0,0,0-.54.2.2,0,0,0-.06-.13.14.14,0,0,0-.1,0,.42.42,0,0,0-.19,0l0-.09.76-.32h.1Z"/><path class="cls-1" d="M152.31,171.33v.82h.58v.2h-.58V174a.59.59,0,0,0,.07.32c0,.07.09.1.19.1a.26.26,0,0,0,.16-.06.51.51,0,0,0,.13-.16H153a.75.75,0,0,1-.29.41.5.5,0,0,1-.35.13.59.59,0,0,1-.25-.07c-.1,0-.13-.12-.19-.19a1,1,0,0,1-.07-.41v-1.72h-.38v-.07a.76.76,0,0,0,.32-.22l.29-.35c0-.07.09-.19.16-.38Z"/><path class="cls-1" d="M153,172.15h1.18v.1h-.06a.33.33,0,0,0-.19.06.33.33,0,0,0-.07.13.82.82,0,0,0,.1.29l.61,1.27.57-1.4a.56.56,0,0,0,0-.22s0-.07,0-.07,0,0-.06,0-.1,0-.16,0v-.1h.83v.1a1.16,1.16,0,0,0-.16,0l-.13.13s0,.1-.1.22l-1,2.56a1.27,1.27,0,0,1-.38.57.75.75,0,0,1-.45.19.33.33,0,0,1-.25-.1.26.26,0,0,1-.1-.22.37.37,0,0,1,.07-.19c.06-.06.12-.06.22-.06a1.68,1.68,0,0,1,.26.06.3.3,0,0,0,.12,0,.26.26,0,0,0,.19-.09,1,1,0,0,0,.2-.32l.19-.45-.9-1.91a1.74,1.74,0,0,0-.12-.23.68.68,0,0,0-.13-.12.24.24,0,0,0-.19-.07v-.13Z"/><path class="cls-1" d="M159.55,172.15v1.54a1.63,1.63,0,0,0,0,.54c0,.06,0,.13.06.13a.12.12,0,0,0,.1,0c.06,0,.12,0,.19,0l0,.09-.77.32h-.12v-.54a5.7,5.7,0,0,1-.48.44.69.69,0,0,1-.35.1.61.61,0,0,1-.39-.13,1.07,1.07,0,0,1-.22-.32,2.37,2.37,0,0,1-.06-.54v-1.15a.44.44,0,0,0,0-.25s-.06-.1-.12-.1a.7.7,0,0,0-.29,0v-.1H158v1.7a.66.66,0,0,0,.13.47.48.48,0,0,0,.29.1,1,1,0,0,0,.25-.06,1.21,1.21,0,0,0,.35-.29v-1.44a.55.55,0,0,0-.06-.28c-.06-.07-.16-.07-.32-.1v-.1Z"/><path class="cls-1" d="M160.89,172.63a1.22,1.22,0,0,1,.83-.54.58.58,0,0,1,.35.1.53.53,0,0,1,.23.35,1.84,1.84,0,0,1,.06.51v1.08a.76.76,0,0,0,0,.32s.07.1.1.1a.5.5,0,0,0,.25,0v.09H161.5v-.09h.06a.52.52,0,0,0,.26-.06l.1-.16v-1.31a1,1,0,0,0-.1-.51.32.32,0,0,0-.29-.16.91.91,0,0,0-.64.35v1.34c0,.16,0,.29,0,.32a.73.73,0,0,0,.09.13s.13,0,.29,0v.09h-1.24v-.09h.06c.13,0,.22,0,.25-.1a.76.76,0,0,0,.07-.38v-1a2.36,2.36,0,0,0,0-.57.17.17,0,0,0-.07-.13s-.06,0-.13,0a.52.52,0,0,0-.19,0l0-.1.77-.31h.12Z"/><path class="cls-1" d="M164.72,174.23v-1.31a.65.65,0,0,0-.09-.35c-.07-.1-.13-.19-.23-.22a.45.45,0,0,0-.25-.1.47.47,0,0,0-.42.22,1.32,1.32,0,0,0-.25.86,1.35,1.35,0,0,0,.25.87.71.71,0,0,0,.55.28.58.58,0,0,0,.44-.25m0,.19a2.52,2.52,0,0,1-.35.29.88.88,0,0,1-.38.09.89.89,0,0,1-.7-.35,1.38,1.38,0,0,1-.32-.89,1.59,1.59,0,0,1,.35-1,1,1,0,0,1,.86-.45.66.66,0,0,1,.54.23v-.48a2.06,2.06,0,0,0,0-.54.16.16,0,0,0-.06-.13.14.14,0,0,0-.1,0,.61.61,0,0,0-.19,0l0-.1.73-.32h.13v2.94a2.11,2.11,0,0,0,0,.54.18.18,0,0,0,.06.13.14.14,0,0,0,.1,0l.19,0,0,.09-.73.32h-.13Z"/><path class="cls-1" d="M166.19,173h1.15a.71.71,0,0,0-.07-.35.67.67,0,0,0-.19-.25.46.46,0,0,0-.28-.1.57.57,0,0,0-.42.19,1.29,1.29,0,0,0-.19.51m0,.16a1.31,1.31,0,0,0,.29.89.76.76,0,0,0,.63.32.63.63,0,0,0,.42-.12,1.22,1.22,0,0,0,.32-.48l.09.06a1.57,1.57,0,0,1-.31.7.87.87,0,0,1-.71.32,1,1,0,0,1-.76-.35,1.35,1.35,0,0,1-.32-1,1.44,1.44,0,0,1,.32-1,1.08,1.08,0,0,1,.83-.38,1,1,0,0,1,.7.29,1,1,0,0,1,.29.76h-1.79Z"/><path class="cls-1" d="M169,172.09v.57c.22-.38.41-.57.64-.57a.33.33,0,0,1,.25.1.29.29,0,0,1,.1.22.49.49,0,0,1-.07.19.31.31,0,0,1-.16.06.46.46,0,0,1-.22-.09.3.3,0,0,0-.19-.1s-.07,0-.1.07a1,1,0,0,0-.25.38v1.21a.82.82,0,0,0,.06.32.21.21,0,0,0,.13.13.61.61,0,0,0,.25.06v.1h-1.27v-.1a.61.61,0,0,0,.28-.06.28.28,0,0,0,.1-.13v-1.24a2.21,2.21,0,0,0,0-.55.14.14,0,0,0-.07-.12s-.06,0-.12,0a.4.4,0,0,0-.19,0l0-.1.77-.32H169Z"/><path class="cls-1" d="M173.14,172.09V173h-.09a1.07,1.07,0,0,0-.26-.54.57.57,0,0,0-.41-.16.51.51,0,0,0-.32.1.43.43,0,0,0-.13.22.33.33,0,0,0,.1.25,1.14,1.14,0,0,0,.35.26l.38.19a.78.78,0,0,1,.29,1.31.9.9,0,0,1-.58.22,1.72,1.72,0,0,1-.51-.09.23.23,0,0,0-.16,0s-.06,0-.09.07h-.07v-.93h.1a1.17,1.17,0,0,0,.29.58.75.75,0,0,0,.48.19.53.53,0,0,0,.32-.1.41.41,0,0,0,.12-.28.41.41,0,0,0-.12-.32,1.87,1.87,0,0,0-.55-.32,1.79,1.79,0,0,1-.51-.35.64.64,0,0,1-.13-.42.6.6,0,0,1,.23-.51.76.76,0,0,1,.54-.22,1.71,1.71,0,0,1,.35.06.61.61,0,0,0,.19,0s.07,0,.07,0,0,0,.06-.09h.06Z"/><path class="cls-1" d="M174.13,173h1.15a.88.88,0,0,0-.06-.35.79.79,0,0,0-.19-.25.51.51,0,0,0-.29-.1.57.57,0,0,0-.42.19,1.29,1.29,0,0,0-.19.51m0,.16a1.31,1.31,0,0,0,.29.89.76.76,0,0,0,.64.32.59.59,0,0,0,.41-.12,1.12,1.12,0,0,0,.32-.48l.1.06a1.49,1.49,0,0,1-.32.7.85.85,0,0,1-.7.32,1,1,0,0,1-.77-.35,1.39,1.39,0,0,1-.32-1,1.49,1.49,0,0,1,.32-1,1.08,1.08,0,0,1,.83-.38.93.93,0,0,1,.7.29,1,1,0,0,1,.29.76h-1.79Z"/><path class="cls-1" d="M178.34,173.75a1.25,1.25,0,0,1-.38.77.91.91,0,0,1-.67.28,1,1,0,0,1-.73-.35,1.38,1.38,0,0,1-.32-1,1.47,1.47,0,0,1,.35-1,1.1,1.1,0,0,1,.86-.38.91.91,0,0,1,.61.19.55.55,0,0,1,.25.42.21.21,0,0,1-.25.22.35.35,0,0,1-.26-.1.3.3,0,0,1-.06-.22.34.34,0,0,0-.35-.35.52.52,0,0,0-.45.22,1.07,1.07,0,0,0-.22.74,1.27,1.27,0,0,0,.22.79.72.72,0,0,0,.61.36.62.62,0,0,0,.47-.2,1.31,1.31,0,0,0,.29-.47Z"/><path class="cls-1" d="M179.43,171.33v.82H180v.2h-.57V174a.62.62,0,0,0,.06.32.19.19,0,0,0,.19.1.24.24,0,0,0,.16-.06.33.33,0,0,0,.13-.16h.1a.8.8,0,0,1-.29.41.51.51,0,0,1-.35.13.63.63,0,0,1-.26-.07c-.09,0-.12-.12-.19-.19a1.27,1.27,0,0,1-.06-.41v-1.72h-.38v-.07a.74.74,0,0,0,.31-.22,2.57,2.57,0,0,0,.29-.35,2.85,2.85,0,0,0,.16-.38Z"/><path class="cls-1" d="M180.9,170.75a.27.27,0,0,1,.19.1.23.23,0,0,1,.06.19.36.36,0,0,1-.06.19.24.24,0,0,1-.39,0,.28.28,0,0,1-.09-.19.26.26,0,0,1,.09-.19.28.28,0,0,1,.2-.1m.22,1.34v2a.84.84,0,0,0,0,.32.28.28,0,0,0,.1.13s.12,0,.25,0v.1h-1.21v-.1a.54.54,0,0,0,.25,0,.28.28,0,0,0,.1-.13.84.84,0,0,0,0-.32v-1a2.3,2.3,0,0,0,0-.54.2.2,0,0,0-.06-.13.18.18,0,0,0-.13,0,.49.49,0,0,0-.19,0l0-.09.76-.32h.13Z"/><path class="cls-1" d="M183,172.28a.48.48,0,0,0-.29.1.49.49,0,0,0-.22.32,1.49,1.49,0,0,0-.1.57,1.8,1.8,0,0,0,.23,1,.68.68,0,0,0,.57.41.52.52,0,0,0,.45-.22,1.32,1.32,0,0,0,.16-.77,1.91,1.91,0,0,0-.29-1.08.67.67,0,0,0-.51-.29m.09-.19a1.18,1.18,0,0,1,.93.45,1.39,1.39,0,0,1,.29.86,2.13,2.13,0,0,1-.16.7,1,1,0,0,1-.45.51,1.12,1.12,0,0,1-.64.19,1.08,1.08,0,0,1-.89-.44,1.44,1.44,0,0,1-.29-.87,2,2,0,0,1,.16-.7,1.26,1.26,0,0,1,.45-.51,1,1,0,0,1,.6-.19"/><path class="cls-1" d="M185.36,172.63a1.22,1.22,0,0,1,.83-.54.58.58,0,0,1,.35.1.57.57,0,0,1,.23.35,1.84,1.84,0,0,1,.06.51v1.08a.76.76,0,0,0,0,.32s.06.1.1.1.12,0,.25,0v.09H186v-.09h.06a.55.55,0,0,0,.26-.06,1.14,1.14,0,0,0,.09-.16v-1.31a1.05,1.05,0,0,0-.09-.51.34.34,0,0,0-.29-.16.91.91,0,0,0-.64.35v1.34c0,.16,0,.29,0,.32a.73.73,0,0,0,.09.13s.13,0,.29,0v.09h-1.25v-.09h.07c.13,0,.22,0,.25-.1a.76.76,0,0,0,.07-.38v-1a2.36,2.36,0,0,0,0-.57.17.17,0,0,0-.07-.13s-.06,0-.13,0a.44.44,0,0,0-.19,0l0-.1.77-.31h.12v.63Z"/><path class="cls-1" d="M188.93,171.64a1.42,1.42,0,0,1,.42-.57.92.92,0,0,1,.61-.22.83.83,0,0,1,.67.28.81.81,0,0,1,.19.48,1.13,1.13,0,0,1-.51.86,1.16,1.16,0,0,1,.51.39,1,1,0,0,1,.19.6,1.26,1.26,0,0,1-.32.86,1.39,1.39,0,0,1-1.15.48,1,1,0,0,1-.51-.09c-.1-.07-.13-.13-.13-.19a.14.14,0,0,1,.07-.13.24.24,0,0,1,.16-.07.15.15,0,0,1,.12,0,.8.8,0,0,1,.23.09.48.48,0,0,0,.22.1.49.49,0,0,0,.22,0,.58.58,0,0,0,.48-.22.82.82,0,0,0,.23-.51,1,1,0,0,0-.1-.42.39.39,0,0,0-.16-.22,1,1,0,0,0-.32-.19.91.91,0,0,0-.41-.1h-.13v-.1a1.36,1.36,0,0,0,.45-.16.77.77,0,0,0,.31-.31.84.84,0,0,0,.1-.42.65.65,0,0,0-.19-.48.62.62,0,0,0-.45-.19.83.83,0,0,0-.7.45Z"/><path class="cls-1" d="M194.2,172.28a.48.48,0,0,0-.29.1.49.49,0,0,0-.22.32,1.32,1.32,0,0,0-.1.57,1.8,1.8,0,0,0,.23,1,.71.71,0,0,0,.57.41.52.52,0,0,0,.45-.22,1.32,1.32,0,0,0,.16-.77,1.91,1.91,0,0,0-.29-1.08.67.67,0,0,0-.51-.29m.06-.19a1.19,1.19,0,0,1,.93.45,1.39,1.39,0,0,1,.28.86,1.9,1.9,0,0,1-.16.7,1,1,0,0,1-.44.51,1.14,1.14,0,0,1-.64.19,1.08,1.08,0,0,1-.89-.44,1.44,1.44,0,0,1-.29-.87,1.82,1.82,0,0,1,.16-.7,1.19,1.19,0,0,1,.45-.51,1.16,1.16,0,0,1,.6-.19"/><path class="cls-1" d="M196.85,172.38V174a1.2,1.2,0,0,0,.06.44.3.3,0,0,0,.29.13h.22v.1h-1.5v-.1h.1a.52.52,0,0,0,.19-.06c.06,0,.09-.1.13-.16a1.21,1.21,0,0,0,0-.39v-1.65h-.48v-.2h.48V172a1.31,1.31,0,0,1,.12-.63,1,1,0,0,1,.39-.42,1.15,1.15,0,0,1,.57-.16.91.91,0,0,1,.54.19.45.45,0,0,1,.16.29.31.31,0,0,1-.06.16c0,.06-.1.06-.16.06a.21.21,0,0,1-.13,0,1.34,1.34,0,0,1-.16-.19.49.49,0,0,0-.19-.19.47.47,0,0,0-.19-.06.44.44,0,0,0-.22.06c-.07,0-.1.13-.13.22a4,4,0,0,0,0,.74v.19h.64v.19h-.67Z"/><path class="cls-1" d="M201.63,171v-.1h1.31v.1h-.13a.4.4,0,0,0-.35.19,1,1,0,0,0-.06.41v1.54a3.41,3.41,0,0,1-.1.89,1,1,0,0,1-.45.54,1.47,1.47,0,0,1-.89.22,1.51,1.51,0,0,1-.92-.22,1,1,0,0,1-.45-.57,3.07,3.07,0,0,1-.1-.93v-1.47a.72.72,0,0,0-.09-.44.41.41,0,0,0-.32-.1H199V171h1.6v.09h-.13a.36.36,0,0,0-.32.16,1.07,1.07,0,0,0-.06.42v1.65a3.26,3.26,0,0,0,0,.52,1,1,0,0,0,.13.44.71.71,0,0,0,.28.26,1.14,1.14,0,0,0,.48.09,1.29,1.29,0,0,0,.64-.16.75.75,0,0,0,.38-.41,2.45,2.45,0,0,0,.1-.86v-1.53a1,1,0,0,0-.07-.45.36.36,0,0,0-.32-.13h-.06Z"/><path class="cls-1" d="M206.45,170.85l.09,1.18h-.09a1.72,1.72,0,0,0-.39-.67,1.12,1.12,0,0,0-.86-.32,1.2,1.2,0,0,0-1.08.57,2.22,2.22,0,0,0-.32,1.15,2.06,2.06,0,0,0,.22,1,1.35,1.35,0,0,0,.55.64,1.33,1.33,0,0,0,.67.22,1.76,1.76,0,0,0,.38-.06,2.05,2.05,0,0,0,.38-.16V173.3a1.14,1.14,0,0,0,0-.38.24.24,0,0,0-.13-.13.84.84,0,0,0-.32,0v-.1H207v.1h-.07c-.12,0-.25,0-.28.13a1,1,0,0,0-.07.41v1.15a2.8,2.8,0,0,1-.63.26,2.46,2.46,0,0,1-.67.06,1.9,1.9,0,0,1-2.05-1.91,2.11,2.11,0,0,1,1-1.79,2,2,0,0,1,1-.26,1.23,1.23,0,0,1,.38,0,2.88,2.88,0,0,1,.48.16l.19.06a.18.18,0,0,0,.1-.06.35.35,0,0,0,0-.2h.13Z"/><path class="cls-1" d="M210.44,170.85l.09,1.27h-.09a1.89,1.89,0,0,0-.48-.83,1.25,1.25,0,0,0-.77-.25,1.17,1.17,0,0,0-.67.19,1.39,1.39,0,0,0-.48.61,2.52,2.52,0,0,0-.16,1,2.57,2.57,0,0,0,.16.89,1.11,1.11,0,0,0,.48.58,1.56,1.56,0,0,0,.73.19,1.41,1.41,0,0,0,.64-.16,2,2,0,0,0,.61-.64l.09.06a2.16,2.16,0,0,1-.63.74,1.86,1.86,0,0,1-2.33-.48,2,2,0,0,1-.38-1.21,2.33,2.33,0,0,1,.25-1.06,1.64,1.64,0,0,1,.67-.73,2,2,0,0,1,1-.26,1.78,1.78,0,0,1,.79.2.67.67,0,0,0,.16.06.16.16,0,0,0,.13-.06.29.29,0,0,0,.1-.23h.13Z"/><path class="cls-1" d="M214.39,173.24l-.64-1.53-.64,1.53Zm.06.22H213l-.26.61a1.05,1.05,0,0,0-.09.32c0,.06,0,.09.06.16a1.38,1.38,0,0,0,.35.09v.1H211.9v-.1a.73.73,0,0,0,.29-.09,1.87,1.87,0,0,0,.32-.55l1.31-3.09h.09l1.31,3.13a1.1,1.1,0,0,0,.29.48.58.58,0,0,0,.35.12v.1h-1.47v-.1a.49.49,0,0,0,.29-.06c.06,0,.06-.1.06-.16a1.38,1.38,0,0,0-.09-.38Z"/><path class="cls-1" d="M218.25,173.75a1.25,1.25,0,0,1-.38.77.92.92,0,0,1-.67.28,1,1,0,0,1-.74-.35,1.65,1.65,0,0,1,0-2,1.08,1.08,0,0,1,.83-.38.9.9,0,0,1,.6.19.56.56,0,0,1,.26.42.29.29,0,0,1-.07.16.26.26,0,0,1-.19.06.33.33,0,0,1-.25-.1s-.07-.09-.07-.22a.37.37,0,0,0-.09-.25.35.35,0,0,0-.26-.1.5.5,0,0,0-.44.22,1.08,1.08,0,0,0-.23.74,1.27,1.27,0,0,0,.23.79.7.7,0,0,0,.6.36.66.66,0,0,0,.48-.2,1.47,1.47,0,0,0,.29-.47Z"/><path class="cls-1" d="M219.34,171.33v.82h.57v.2h-.57V174a.62.62,0,0,0,.06.32c0,.07.09.1.19.1a.26.26,0,0,0,.16-.06.4.4,0,0,0,.13-.16H220a.79.79,0,0,1-.28.41.53.53,0,0,1-.35.13.63.63,0,0,1-.26-.07c-.1,0-.13-.12-.19-.19a1.22,1.22,0,0,1-.07-.41v-1.72h-.38v-.07a.76.76,0,0,0,.32-.22,3.6,3.6,0,0,0,.29-.35c0-.07.09-.19.16-.38Z"/><path class="cls-1" d="M220.29,175.66v-.12a1.17,1.17,0,0,0,.45-.29.81.81,0,0,0,.16-.42.11.11,0,0,0,0-.09s0,0,0,0-.06,0-.12.06a.14.14,0,0,1-.1,0,.48.48,0,0,1-.22-.06.26.26,0,0,1-.07-.22.33.33,0,0,1,.1-.23.37.37,0,0,1,.25-.09.42.42,0,0,1,.32.16.55.55,0,0,1,.13.41.85.85,0,0,1-.19.54,1.58,1.58,0,0,1-.64.35"/><path class="cls-1" d="M223.48,171.33l.9-.45h.09v3.19a.94.94,0,0,0,0,.38.36.36,0,0,0,.1.13.76.76,0,0,0,.32,0v.1h-1.41v-.1c.16,0,.29,0,.35,0s.1-.06.1-.1a1.15,1.15,0,0,0,0-.41v-2a2.35,2.35,0,0,0,0-.55.16.16,0,0,0-.06-.12.18.18,0,0,0-.13,0,.81.81,0,0,0-.29.09Z"/><path class="cls-1" d="M227.6,172.86c0-.26.06-.45.06-.58a1.88,1.88,0,0,0-.09-.57,1.12,1.12,0,0,0-.26-.48.51.51,0,0,0-.38-.16.47.47,0,0,0-.42.22,1.11,1.11,0,0,0-.19.67,1.6,1.6,0,0,0,.26.93.52.52,0,0,0,.44.25,1,1,0,0,0,.29-.06l.29-.22m-1.69,1.94v-.09a1.87,1.87,0,0,0,.67-.16,1.7,1.7,0,0,0,.6-.58,2.52,2.52,0,0,0,.39-.89,1.48,1.48,0,0,1-.77.29.85.85,0,0,1-.67-.32,1.15,1.15,0,0,1-.29-.83,1.48,1.48,0,0,1,.29-.89,1,1,0,0,1,.89-.48,1,1,0,0,1,.8.38,1.8,1.8,0,0,1,.42,1.18,2.3,2.3,0,0,1-.32,1.18,2.53,2.53,0,0,1-.83.89,1.72,1.72,0,0,1-1,.29h-.22Z"/><path class="cls-1" d="M230.85,170.94l-.22.48h-1.12l-.25.51a2,2,0,0,1,1.14.54,1.19,1.19,0,0,1,.36.9,1.11,1.11,0,0,1-.13.54,2.31,2.31,0,0,1-.29.45,1.25,1.25,0,0,1-.41.28,1.55,1.55,0,0,1-.64.16.64.64,0,0,1-.48-.13.3.3,0,0,1-.16-.25.18.18,0,0,1,.06-.13.28.28,0,0,1,.16-.06.19.19,0,0,1,.13,0,.68.68,0,0,1,.19.13.76.76,0,0,0,.42.13.8.8,0,0,0,.57-.26.82.82,0,0,0,.26-.61,1,1,0,0,0-.23-.63,1.16,1.16,0,0,0-.6-.45,2.39,2.39,0,0,0-.83-.16l.7-1.47Z"/><path class="cls-1" d="M232,172.82c0,.26-.06.45-.06.61a1.88,1.88,0,0,0,.09.57.86.86,0,0,0,.29.48.47.47,0,0,0,.35.13.51.51,0,0,0,.42-.22,1.08,1.08,0,0,0,.19-.64,1.75,1.75,0,0,0-.19-.83.6.6,0,0,0-.55-.35.67.67,0,0,0-.22,0l-.32.22m1.72-2v.09a1.59,1.59,0,0,0-.6.16,1.23,1.23,0,0,0-.45.35,1.83,1.83,0,0,0-.38.51,3.47,3.47,0,0,0-.26.67,1.39,1.39,0,0,1,.8-.28.84.84,0,0,1,.67.31,1.19,1.19,0,0,1,.29.8,1.39,1.39,0,0,1-.29.86,1.06,1.06,0,0,1-.89.48.88.88,0,0,1-.64-.25,1.67,1.67,0,0,1-.51-1.28,2.32,2.32,0,0,1,.19-1,2.14,2.14,0,0,1,.57-.79A2.47,2.47,0,0,1,233,171a2.21,2.21,0,0,1,.63-.13h.16Z"/><path class="cls-1" d="M234.17,170.88v-.13a3,3,0,0,1,.7.48,2.73,2.73,0,0,1,.61,1,3.5,3.5,0,0,1,.22,1.14,3,3,0,0,1-.41,1.57,2.54,2.54,0,0,1-1.09,1v-.1a1.27,1.27,0,0,0,.54-.51,1.9,1.9,0,0,0,.32-.83,5.33,5.33,0,0,0,.1-1,5.15,5.15,0,0,0-.1-1.08,2.06,2.06,0,0,0-.16-.61,1.84,1.84,0,0,0-.28-.45,2,2,0,0,0-.45-.41"/><path class="cls-1" d="M105.32,160.54v.19a1.19,1.19,0,0,0-.67.42,5.44,5.44,0,0,0-.63,1.21l-2.43,5.42h-.16L99,162.14a7,7,0,0,0-.57-1.18.83.83,0,0,0-.55-.23v-.19h3.35v.19h-.12a.94.94,0,0,0-.61.13c-.06.07-.13.13-.13.23a.67.67,0,0,0,0,.22l.29.7,1.5,3.54,1.37-3.12c.16-.39.26-.64.32-.77a1.47,1.47,0,0,0,.06-.32.55.55,0,0,0-.09-.29,1,1,0,0,0-.26-.19,1.62,1.62,0,0,0-.57-.09v-.2h2.26Z"/><path class="cls-1" d="M107.65,164.66a4.63,4.63,0,0,0-.09-1.15.94.94,0,0,0-.29-.48.4.4,0,0,0-.29-.09.52.52,0,0,0-.44.25,2.44,2.44,0,0,0-.32,1.28v.19Zm1.28.35h-2.65a2.48,2.48,0,0,0,.51,1.53,1.06,1.06,0,0,0,.86.45,1.26,1.26,0,0,0,.58-.16,2.32,2.32,0,0,0,.54-.64l.16.13a3,3,0,0,1-.86,1.15,2,2,0,0,1-2.75-.48,3.13,3.13,0,0,1-.44-1.66,2.72,2.72,0,0,1,.67-2,2,2,0,0,1,1.53-.73,1.66,1.66,0,0,1,1.28.6,2.63,2.63,0,0,1,.57,1.76"/><path class="cls-1" d="M111.42,160.54v6.06c0,.35,0,.58.13.67s.22.16.47.16v.19h-2.61v-.19a.57.57,0,0,0,.48-.19,1.27,1.27,0,0,0,.09-.64v-5c0-.35,0-.57-.13-.67a.58.58,0,0,0-.44-.16v-.19Z"/><path class="cls-1" d="M114.35,160.54v6.06c0,.35,0,.58.13.67s.22.16.48.16v.19h-2.62v-.19a.54.54,0,0,0,.48-.19c.07-.06.1-.29.1-.64v-5c0-.35,0-.57-.13-.67a.54.54,0,0,0-.45-.16v-.19Z"/><path class="cls-1" d="M117.7,163a.59.59,0,0,0-.44.19,1.33,1.33,0,0,0-.26.8c0,.38-.06.95-.06,1.66,0,.38,0,.73.06,1a1,1,0,0,0,.26.57.53.53,0,0,0,.41.19.51.51,0,0,0,.38-.12.86.86,0,0,0,.26-.51,13.81,13.81,0,0,0,.09-2,5.4,5.4,0,0,0-.09-1.22.94.94,0,0,0-.29-.48c-.06-.09-.16-.12-.32-.12m0-.39a2.28,2.28,0,0,1,1.18.32,2.4,2.4,0,0,1,.83.93,3.16,3.16,0,0,1,.29,1.34,2.85,2.85,0,0,1-.51,1.75,2,2,0,0,1-1.76.83A2,2,0,0,1,116,167a2.94,2.94,0,0,1-.57-1.79,2.76,2.76,0,0,1,.61-1.82,1.89,1.89,0,0,1,1.62-.8"/><path class="cls-1" d="M122.71,162.74v1.12a4.51,4.51,0,0,1,.83-1,1.35,1.35,0,0,1,.7-.26.66.66,0,0,1,.48.2.63.63,0,0,1,.16.51.89.89,0,0,1-.16.54.56.56,0,0,1-.41.19.62.62,0,0,1-.48-.19,1.35,1.35,0,0,0-.23-.19s-.06,0-.12,0a.39.39,0,0,0-.29.12,1.15,1.15,0,0,0-.32.51,4,4,0,0,0-.16,1.12v1.4a1.25,1.25,0,0,0,0,.39.44.44,0,0,0,.19.22,1.39,1.39,0,0,0,.42.06v.19h-2.62v-.19c.23,0,.35-.06.42-.16a1.93,1.93,0,0,0,.09-.79v-2.72a2.3,2.3,0,0,0,0-.54.5.5,0,0,0-.16-.22,2.37,2.37,0,0,0-.35-.1v-.19h2Z"/><path class="cls-1" d="M128,164.66a4,4,0,0,0-.1-1.15.88.88,0,0,0-.29-.48.38.38,0,0,0-.28-.09.55.55,0,0,0-.45.25,2.44,2.44,0,0,0-.32,1.28v.19Zm1.27.35h-2.64a2.48,2.48,0,0,0,.51,1.53,1,1,0,0,0,.86.45,1.25,1.25,0,0,0,.57-.16,2.32,2.32,0,0,0,.54-.64l.2.13a3,3,0,0,1-.87,1.15,2,2,0,0,1-2.74-.48,3,3,0,0,1-.45-1.66,2.76,2.76,0,0,1,.67-2,2.07,2.07,0,0,1,1.54-.73,1.64,1.64,0,0,1,1.27.6,2.81,2.81,0,0,1,.54,1.76"/><path class="cls-1" d="M136.08,167.43v.19h-3.67v-.19h.22a1.14,1.14,0,0,0,.48-.09.57.57,0,0,0,.22-.26,2.46,2.46,0,0,0,.07-.67v-4.65a2.4,2.4,0,0,0-.07-.67c0-.1-.12-.16-.22-.23a1.14,1.14,0,0,0-.48-.09h-.22v-.2h3.67v.2h-.23a1.14,1.14,0,0,0-.48.09c-.09,0-.15.13-.22.26a2.62,2.62,0,0,0-.06.67v4.65a2.39,2.39,0,0,0,.06.67c0,.1.13.16.22.26a1.14,1.14,0,0,0,.48.1h.23Z"/><path class="cls-1" d="M138.66,162.74v.64a3.88,3.88,0,0,1,.7-.6,1.49,1.49,0,0,1,.74-.2,1.16,1.16,0,0,1,.76.26,1.25,1.25,0,0,1,.42.67,4.63,4.63,0,0,1,.09,1.15v1.91a1.4,1.4,0,0,0,.1.7c.06.1.19.16.41.16v.19h-2.45v-.19a.46.46,0,0,0,.38-.22,1.47,1.47,0,0,0,.09-.64V164.4a4.09,4.09,0,0,0,0-.76.63.63,0,0,0-.16-.26.37.37,0,0,0-.25-.09c-.29,0-.58.22-.83.63v2.62a1.69,1.69,0,0,0,.09.7.56.56,0,0,0,.39.19v.19h-2.46v-.19a.81.81,0,0,0,.45-.19,1.43,1.43,0,0,0,.09-.67v-2.74a1.59,1.59,0,0,0-.09-.7.64.64,0,0,0-.42-.19v-.2Z"/><path class="cls-1" d="M145.61,162.62l.07,1.66h-.16a2.5,2.5,0,0,0-.67-1,1,1,0,0,0-.67-.28.48.48,0,0,0-.35.12.51.51,0,0,0-.16.32.52.52,0,0,0,.09.29,5.34,5.34,0,0,0,.93.73,3.6,3.6,0,0,1,1,.9,1.42,1.42,0,0,1,.22.8,1.67,1.67,0,0,1-.19.79,1.52,1.52,0,0,1-.57.61,1.75,1.75,0,0,1-.8.22,2.57,2.57,0,0,1-.93-.22.82.82,0,0,0-.22-.06c-.13,0-.22.09-.29.25h-.16l-.09-1.75h.16a2.21,2.21,0,0,0,.64,1,1.2,1.2,0,0,0,.76.35.73.73,0,0,0,.42-.16.57.57,0,0,0,.16-.38.82.82,0,0,0-.16-.45,2.43,2.43,0,0,0-.71-.54,6.43,6.43,0,0,1-1-.83,1.57,1.57,0,0,1-.35-1,1.59,1.59,0,0,1,.38-1,1.35,1.35,0,0,1,1.12-.45,1.82,1.82,0,0,1,.77.19.31.31,0,0,0,.22.07.3.3,0,0,0,.16,0,2.49,2.49,0,0,0,.19-.23h.22Z"/><path class="cls-1" d="M148.61,161v1.78h1.15v.51h-1.15v3a2.21,2.21,0,0,0,0,.55.4.4,0,0,0,.13.19.25.25,0,0,0,.19.06c.23,0,.45-.16.64-.51l.16.13a1.41,1.41,0,0,1-1.37,1,1.19,1.19,0,0,1-.77-.26,1,1,0,0,1-.41-.57,5.26,5.26,0,0,1-.06-1v-2.65h-.64V163a6.78,6.78,0,0,0,1.11-1,5.38,5.38,0,0,0,.8-1.15h.19Z"/><path class="cls-1" d="M151.39,160.38a.7.7,0,0,1,.57.26.83.83,0,0,1,0,1.15.76.76,0,0,1-.57.22.76.76,0,0,1-.8-.8.76.76,0,0,1,.22-.57.7.7,0,0,1,.58-.26m.7,2.36v3.86c0,.35,0,.58.13.67s.22.16.48.16v.19h-2.62v-.19a.57.57,0,0,0,.48-.19,1.36,1.36,0,0,0,.09-.64v-2.84a1.12,1.12,0,0,0-.12-.67.57.57,0,0,0-.45-.15v-.2Z"/><path class="cls-1" d="M155.09,161v1.78h1.15v.51h-1.15v3a2.21,2.21,0,0,0,0,.55.3.3,0,0,0,.13.19.24.24,0,0,0,.19.06c.22,0,.45-.16.64-.51l.16.13a1.42,1.42,0,0,1-1.37,1,1.17,1.17,0,0,1-.77-.26,1,1,0,0,1-.41-.57,4.2,4.2,0,0,1-.07-1v-2.65H153V163a6.87,6.87,0,0,0,1.12-1,5.77,5.77,0,0,0,.8-1.15h.19Z"/><path class="cls-1" d="M161.34,162.74v3.83a1.4,1.4,0,0,0,.1.7.48.48,0,0,0,.41.16v.19h-2V167a1.94,1.94,0,0,1-.7.6,1.48,1.48,0,0,1-.76.19,1.22,1.22,0,0,1-.74-.25,1,1,0,0,1-.41-.61,4.66,4.66,0,0,1-.1-1.18V163.8a1.65,1.65,0,0,0-.09-.71.75.75,0,0,0-.42-.19v-.19h2v3.35a2.62,2.62,0,0,0,.06.67.43.43,0,0,0,.16.22.33.33,0,0,0,.26.07.67.67,0,0,0,.35-.1,2.49,2.49,0,0,0,.48-.54v-2.62a1.43,1.43,0,0,0-.1-.7.63.63,0,0,0-.41-.19v-.19h1.91Z"/><path class="cls-1" d="M164.5,161v1.78h1.15v.51H164.5v3a2.21,2.21,0,0,0,0,.55.3.3,0,0,0,.13.19.24.24,0,0,0,.19.06c.22,0,.45-.16.64-.51l.16.13a1.42,1.42,0,0,1-1.37,1,1.17,1.17,0,0,1-.77-.26,1,1,0,0,1-.41-.57,4.2,4.2,0,0,1-.07-1v-2.65h-.64V163a6.87,6.87,0,0,0,1.12-1,5.77,5.77,0,0,0,.8-1.15h.19Z"/><path class="cls-1" d="M168.93,164.66a4.63,4.63,0,0,0-.09-1.15.94.94,0,0,0-.29-.48.4.4,0,0,0-.29-.09.52.52,0,0,0-.44.25,2.44,2.44,0,0,0-.32,1.28v.19Zm1.25.35h-2.65a2.48,2.48,0,0,0,.51,1.53,1,1,0,0,0,.86.45,1.33,1.33,0,0,0,.58-.16,2.32,2.32,0,0,0,.54-.64l.19.13a3,3,0,0,1-.86,1.15,2,2,0,0,1-2.75-.48,3.13,3.13,0,0,1-.44-1.66,2.72,2.72,0,0,1,.67-2,2,2,0,0,1,1.53-.73,1.66,1.66,0,0,1,1.28.6,2.49,2.49,0,0,1,.54,1.76"/><path class="cls-1" d="M175.76,163a.63.63,0,0,0-.45.19,1.41,1.41,0,0,0-.25.8c0,.38-.07.95-.07,1.66,0,.38,0,.73.07,1a1,1,0,0,0,.25.57.57.57,0,0,0,.42.19.51.51,0,0,0,.38-.12.92.92,0,0,0,.26-.51,13.81,13.81,0,0,0,.09-2,5.4,5.4,0,0,0-.09-1.22.94.94,0,0,0-.29-.48.38.38,0,0,0-.32-.12m0-.39a2.3,2.3,0,0,1,1.18.32,2.4,2.4,0,0,1,.83.93,3.16,3.16,0,0,1,.28,1.34,2.79,2.79,0,0,1-.51,1.75,2,2,0,0,1-1.75.83,2,2,0,0,1-1.69-.76,3,3,0,0,1-.61-1.79,2.76,2.76,0,0,1,.61-1.82,2,2,0,0,1,1.66-.8"/><path class="cls-1" d="M180.86,163.25v3.39a1.15,1.15,0,0,0,.1.6.77.77,0,0,0,.61.19v.19h-2.84v-.19a1.2,1.2,0,0,0,.44-.06.28.28,0,0,0,.19-.19,1.42,1.42,0,0,0,.07-.51v-3.38h-.7v-.51h.7v-.64a1.63,1.63,0,0,1,.54-1.25,2.15,2.15,0,0,1,1.47-.51,1.66,1.66,0,0,1,1,.26.75.75,0,0,1,.31.54.57.57,0,0,1-.19.42.67.67,0,0,1-.51.16.55.55,0,0,1-.41-.13.43.43,0,0,1-.16-.32.57.57,0,0,1,0-.19,1.16,1.16,0,0,1,0-.16.24.24,0,0,0-.06-.16.23.23,0,0,0-.19-.07.32.32,0,0,0-.26.13.79.79,0,0,0-.09.42v1.53h.7v.51h-.74Z"/><path class="cls-1" d="M191,160.54v1.92h-.19a2.32,2.32,0,0,0-.38-1,1.62,1.62,0,0,0-.55-.48,1.78,1.78,0,0,0-.7-.09h-.51v5.45a2.14,2.14,0,0,0,.07.67c0,.1.12.16.22.26a1.14,1.14,0,0,0,.48.09h.22v.19H186v-.19h.22a1,1,0,0,0,.48-.09.5.5,0,0,0,.23-.26,2.68,2.68,0,0,0,.06-.67v-5.45h-.51a1.31,1.31,0,0,0-1,.31,2.12,2.12,0,0,0-.57,1.22h-.2v-1.92Z"/><path class="cls-1" d="M193.66,164.66a4.47,4.47,0,0,0-.1-1.15.88.88,0,0,0-.29-.48.39.39,0,0,0-.28-.09.54.54,0,0,0-.45.25,2.44,2.44,0,0,0-.32,1.28v.19Zm1.24.35h-2.65a2.48,2.48,0,0,0,.51,1.53,1.06,1.06,0,0,0,.86.45,1.26,1.26,0,0,0,.58-.16,2.32,2.32,0,0,0,.54-.64l.16.13a3,3,0,0,1-.86,1.15,1.89,1.89,0,0,1-1.12.35,1.84,1.84,0,0,1-1.62-.83,3,3,0,0,1-.45-1.66,2.72,2.72,0,0,1,.67-2,2.06,2.06,0,0,1,1.53-.73,1.66,1.66,0,0,1,1.28.6,2.36,2.36,0,0,1,.57,1.76"/><path class="cls-1" d="M199.46,166.38l.16.13a2.2,2.2,0,0,1-.86,1,2,2,0,0,1-1.08.31,1.89,1.89,0,0,1-1.54-.73,3.1,3.1,0,0,1,0-3.54,2,2,0,0,1,1.76-.93,1.68,1.68,0,0,1,1.18.39,1.16,1.16,0,0,1,.44.86.65.65,0,0,1-.19.48.69.69,0,0,1-.48.19.76.76,0,0,1-.51-.19,1.3,1.3,0,0,1-.25-.74c0-.22-.07-.38-.16-.44a.31.31,0,0,0-.29-.13.48.48,0,0,0-.41.25,2.16,2.16,0,0,0-.26,1.25,3.88,3.88,0,0,0,.22,1.31,2.09,2.09,0,0,0,.61.92,1,1,0,0,0,.67.22,1,1,0,0,0,.48-.12,2.25,2.25,0,0,0,.54-.45"/><path class="cls-1" d="M202.2,160.54v2.84a2.82,2.82,0,0,1,.74-.6,1.31,1.31,0,0,1,.7-.16,1.19,1.19,0,0,1,.77.25,1.08,1.08,0,0,1,.41.61,5.19,5.19,0,0,1,.1,1.18v1.91a1.59,1.59,0,0,0,.09.7.51.51,0,0,0,.42.16v.19H203v-.19a.55.55,0,0,0,.38-.22,1.36,1.36,0,0,0,.1-.67v-2.17a4.09,4.09,0,0,0,0-.76.68.68,0,0,0-.16-.26.4.4,0,0,0-.26-.1.73.73,0,0,0-.41.13,1.52,1.52,0,0,0-.42.51v2.62a1.78,1.78,0,0,0,.07.64c.06.12.19.19.41.22v.19H200.2v-.19a.82.82,0,0,0,.44-.19c.07-.07.1-.29.1-.67v-5a1.43,1.43,0,0,0-.1-.7.59.59,0,0,0-.41-.19v-.19h2Z"/><path class="cls-1" d="M208.07,162.74v.64a3.59,3.59,0,0,1,.71-.6,1.43,1.43,0,0,1,.73-.2,1.17,1.17,0,0,1,1.18.93,4.47,4.47,0,0,1,.1,1.15v1.91a1.59,1.59,0,0,0,.09.7.46.46,0,0,0,.42.16v.19h-2.46v-.19a.45.45,0,0,0,.38-.22,1.3,1.3,0,0,0,.1-.64V164.4a4.09,4.09,0,0,0,0-.76,1,1,0,0,0-.16-.26.39.39,0,0,0-.26-.09c-.29,0-.57.22-.83.63v2.62a1.49,1.49,0,0,0,.1.7.51.51,0,0,0,.38.19v.19h-2.46v-.19a.75.75,0,0,0,.45-.19,1.26,1.26,0,0,0,.1-.67v-2.74a1.4,1.4,0,0,0-.1-.7.59.59,0,0,0-.41-.19v-.2Z"/><path class="cls-1" d="M214.29,163a.62.62,0,0,0-.44.19,1.4,1.4,0,0,0-.26.8c0,.38-.06.95-.06,1.66,0,.38,0,.73.06,1a1,1,0,0,0,.26.57.54.54,0,0,0,.41.19.55.55,0,0,0,.39-.12.91.91,0,0,0,.25-.51,13.32,13.32,0,0,0,.1-2,5.23,5.23,0,0,0-.1-1.22.88.88,0,0,0-.29-.48c-.06-.09-.16-.12-.32-.12m0-.39a2.28,2.28,0,0,1,1.18.32,2.4,2.4,0,0,1,.83.93,3.16,3.16,0,0,1,.29,1.34,2.85,2.85,0,0,1-.51,1.75,2,2,0,0,1-1.76.83,2,2,0,0,1-1.69-.76,2.94,2.94,0,0,1-.57-1.79,2.76,2.76,0,0,1,.61-1.82,2,2,0,0,1,1.62-.8"/><path class="cls-1" d="M219.18,160.54v6.06a1.1,1.1,0,0,0,.12.67.57.57,0,0,0,.48.16v.19h-2.61v-.19a.53.53,0,0,0,.47-.19c.07-.06.1-.29.1-.64v-5c0-.35,0-.57-.13-.67a.58.58,0,0,0-.44-.16v-.19Z"/><path class="cls-1" d="M222.53,163a.57.57,0,0,0-.45.19,1.4,1.4,0,0,0-.26.8c0,.38-.06.95-.06,1.66,0,.38,0,.73.06,1a1,1,0,0,0,.26.57.54.54,0,0,0,.41.19.55.55,0,0,0,.39-.12.91.91,0,0,0,.25-.51,12.05,12.05,0,0,0,.1-2,4.72,4.72,0,0,0-.1-1.22.88.88,0,0,0-.29-.48c0-.09-.16-.12-.31-.12m0-.39a2.33,2.33,0,0,1,1.18.32,2.38,2.38,0,0,1,.82.93,3,3,0,0,1,.29,1.34,2.85,2.85,0,0,1-.51,1.75,2,2,0,0,1-1.75.83,2,2,0,0,1-1.69-.76,2.91,2.91,0,0,1-.61-1.79,2.76,2.76,0,0,1,.61-1.82,2,2,0,0,1,1.66-.8"/><path class="cls-1" d="M227.72,162.94a.58.58,0,0,0-.51.31,2.79,2.79,0,0,0-.22,1.28,2.28,2.28,0,0,0,.19,1.09.56.56,0,0,0,.48.28.61.61,0,0,0,.51-.28,2.26,2.26,0,0,0,.19-1.12,2.4,2.4,0,0,0-.22-1.28c0-.22-.19-.28-.42-.28m-.28,5.42a1.78,1.78,0,0,0-.7.09.48.48,0,0,0-.29.45.53.53,0,0,0,.32.48,1.93,1.93,0,0,0,1.15.22,2.55,2.55,0,0,0,1.11-.19.6.6,0,0,0,.42-.54.36.36,0,0,0-.07-.22,1,1,0,0,0-.41-.23,8.71,8.71,0,0,0-1.53-.06m1.18-5.55h1.62v.57h-.92a1.46,1.46,0,0,1,.35.48,1.24,1.24,0,0,1,.13.61,1.44,1.44,0,0,1-.29.89,2.1,2.1,0,0,1-.76.61,1.93,1.93,0,0,1-.87.22s-.22,0-.6,0a.55.55,0,0,0-.54.54.43.43,0,0,0,.12.32.71.71,0,0,0,.48.13h.9a3.18,3.18,0,0,1,1.49.25,1.11,1.11,0,0,1,.58,1,1.39,1.39,0,0,1-.26.8,1.7,1.7,0,0,1-.7.54,4.5,4.5,0,0,1-1.53.26,4.26,4.26,0,0,1-1.18-.13,1.78,1.78,0,0,1-.77-.35.7.7,0,0,1-.22-.48.52.52,0,0,1,.19-.41,1.54,1.54,0,0,1,.67-.32,1,1,0,0,1-.38-1.63,2.76,2.76,0,0,1,.86-.61,1.91,1.91,0,0,1-1-.67,1.49,1.49,0,0,1-.32-.95,1.63,1.63,0,0,1,.58-1.25,2.14,2.14,0,0,1,1.5-.51,1.25,1.25,0,0,1,.86.1"/><path class="cls-1" d="M233.05,167.82l-1.56-3.61a6,6,0,0,0-.51-1,.7.7,0,0,0-.42-.25v-.2h2.59v.2a.53.53,0,0,0-.35.09.27.27,0,0,0-.1.22,3.32,3.32,0,0,0,.26.8l.83,1.92.57-1.47a4.31,4.31,0,0,0,.32-1.09.42.42,0,0,0-.13-.32.76.76,0,0,0-.45-.12v-.19h1.63V163a.52.52,0,0,0-.38.19,5.18,5.18,0,0,0-.51,1.08l-1.37,3.61a8.38,8.38,0,0,1-.77,1.66,1.12,1.12,0,0,1-.89.44,1,1,0,0,1-.7-.25.7.7,0,0,1-.26-.61.72.72,0,0,1,.19-.51.63.63,0,0,1,.45-.19.57.57,0,0,1,.41.16.74.74,0,0,1,.16.51,1.58,1.58,0,0,0,0,.26.16.16,0,0,0,.12.06c.1,0,.16-.06.26-.16a3.89,3.89,0,0,0,.48-1Z"/><path class="cls-1" d="M68.83,129.06a19.17,19.17,0,0,0-4.5,37.8,12.24,12.24,0,0,0,1.44.29c.76-.16,1.37-.26,1.85-.32a14.11,14.11,0,0,1-2.07-.26,18.58,18.58,0,1,1,6.82,0c-.67.13-1.34.22-2,.29.45.06,1,.12,1.82.28.48-.09,1-.19,1.4-.31a19.17,19.17,0,0,0-4.72-37.74"/><path class="cls-1" d="M71.7,171.71a10.74,10.74,0,0,1,1.5.32l1.34-.29c-.38-.1-.76-.22-1.12-.29-.57.1-1.14.16-1.72.26m-2.87-47.66a24.18,24.18,0,0,0-11.9,45.23c.26.13.48.29.74.42.22-.07.44-.16.7-.23-.26-.12-.51-.25-.74-.38A23.63,23.63,0,1,1,80.16,169c-.26.12-.48.25-.74.38a6.53,6.53,0,0,0,.67.22c.26-.13.48-.25.74-.41a24.18,24.18,0,0,0-12-45.14m-4.31,47.43-1.11.29c.44.1.89.19,1.37.26l1.5-.32a14.34,14.34,0,0,1-1.76-.23"/><path class="cls-1" d="M48.19,158l.07,0a.44.44,0,0,0,.28.16h.55l2.36-.19,0,.06L50,159.94a1.18,1.18,0,0,0-.29.44c0,.07,0,.13,0,.23l-.06,0L49,159.46l.06,0,0,0a1.38,1.38,0,0,0,.15.19s.07,0,.1,0,0,0,.06-.06a2.09,2.09,0,0,0,.2-.23l.92-1.21-1.37.13a2.58,2.58,0,0,0-.32,0,.86.86,0,0,0-.13,0s-.06,0-.06.1,0,.06,0,.13a.46.46,0,0,0,.09.22l-.06,0Z"/><path class="cls-1" d="M47.71,156.36,48.8,156l0-.06a.58.58,0,0,0-.29-.32.83.83,0,0,0-.51,0l0-.07,1.37-.51,0,.07a1.47,1.47,0,0,0-.32.22c-.06.1-.13.16-.13.26a.66.66,0,0,0,.07.32l.73-.29.26-.13s0-.06.06-.09,0-.1,0-.16l-.07-.16a1.15,1.15,0,0,0-.38-.55,1,1,0,0,0-.64-.12l0-.07.9-.19.86,2.3-.07,0,0-.1a.62.62,0,0,0-.1-.16s-.06,0-.12,0l-.26.07-1.75.63a.74.74,0,0,0-.23.1.15.15,0,0,0-.06.1c0,.06,0,.12,0,.22l0,.09-.06,0-.83-2.2.77-.29,0,.06a.92.92,0,0,0-.35.32.43.43,0,0,0-.07.35,1.06,1.06,0,0,0,.13.42Z"/><path class="cls-1" d="M48.1,151.39l1-.1.51,2.46-.07,0,0-.1a.27.27,0,0,0-.1-.19.16.16,0,0,0-.12-.06,1.09,1.09,0,0,0-.26,0l-1.82.38-.25.07s-.07.06-.07.09v.19l0,.1-.07,0-.32-1.46.07,0,0,.13c0,.1,0,.13.09.19s.07.07.13.07a.87.87,0,0,0,.26,0l1.75-.38a.73.73,0,0,0,.26-.09.2.2,0,0,0,.06-.13,1.14,1.14,0,0,0,0-.26l-.06-.22a1,1,0,0,0-.16-.35.46.46,0,0,0-.29-.19c-.13,0-.32-.07-.54-.1Z"/><path class="cls-1" d="M47.84,148.33l1,0,.16,2.49h-.06v-.1a.26.26,0,0,0-.07-.19s-.06-.07-.09-.07h-.26l-1.85.13a1.62,1.62,0,0,0-.25,0l-.1.1a.36.36,0,0,0,0,.19v.1h-.07l-.09-1.5h.06v.13a.26.26,0,0,0,.07.19s.06.06.09.06h.26l1.78-.13c.13,0,.23,0,.29,0l.1-.09v-.48a.75.75,0,0,0-.1-.39,1,1,0,0,0-.25-.25,1.45,1.45,0,0,0-.52-.16Z"/><path class="cls-1" d="M46.25,146.19a.58.58,0,0,0,.35.6,1.94,1.94,0,0,0,.92.26,2.13,2.13,0,0,0,1.09-.16.63.63,0,0,0,.28-.48.67.67,0,0,0-.06-.35,1.15,1.15,0,0,0-.41-.32,2.46,2.46,0,0,0-.74-.16,2.33,2.33,0,0,0-.83,0,1,1,0,0,0-.41.23c-.13.06-.16.19-.19.35m-.13,0a1.45,1.45,0,0,1,.48-1.05,1.42,1.42,0,0,1,1.08-.36,1.65,1.65,0,0,1,.93.39,1.57,1.57,0,0,1-.16,2.33,1.52,1.52,0,0,1-1,.25,1.42,1.42,0,0,1-1.34-1.56"/><path class="cls-1" d="M46.82,142.93l1.21.32,0-.12a2.37,2.37,0,0,0,.07-.45.43.43,0,0,0-.13-.26.87.87,0,0,0-.32-.16.66.66,0,0,0-.51,0,.68.68,0,0,0-.29.44Zm1.34.36.77.19c.16,0,.25.06.28,0a.21.21,0,0,0,.13-.07.81.81,0,0,0,.1-.25l.06,0-.35,1.4-.06,0a1,1,0,0,0,0-.25.14.14,0,0,0-.07-.13.78.78,0,0,0-.28-.1L47,143.67c-.16,0-.26-.07-.29,0a.23.23,0,0,0-.12.06.55.55,0,0,0-.1.25l-.06,0,.31-1.27A2.59,2.59,0,0,1,47,142a.83.83,0,0,1,.35-.32.79.79,0,0,1,.48,0,.73.73,0,0,1,.45.36.93.93,0,0,1,.09.44l1.09-.41a2.8,2.8,0,0,1,.28-.13.29.29,0,0,0,.13-.16l.06,0-.22.86-1.47.58Z"/><path class="cls-1" d="M47.94,139.55,49,140l0-.06a.44.44,0,0,0,0-.42,1,1,0,0,0-.38-.35l0-.06,1.37.57,0,.06a1.07,1.07,0,0,0-.41-.06.3.3,0,0,0-.26.1.47.47,0,0,0-.16.25l.73.32a1.17,1.17,0,0,0,.26.1.12.12,0,0,0,.1,0,.31.31,0,0,0,.09-.16l.06-.15a1.26,1.26,0,0,0,.1-.67,1,1,0,0,0-.38-.55l0-.06.77.48-1,2.23-.07,0,0-.1a.4.4,0,0,0,0-.19s0-.06-.07-.13a.89.89,0,0,0-.22-.12L48,140.22c-.13-.06-.19-.06-.22-.09s-.1,0-.13,0a.26.26,0,0,0-.13.16l0,.09-.07,0,.93-2.17.77.32,0,.07a1.19,1.19,0,0,0-.48,0,.51.51,0,0,0-.28.23,1.52,1.52,0,0,0-.23.38Z"/><path class="cls-1" d="M52.5,136.62l.06,0-.8,1.24-.06,0,.06-.06a.4.4,0,0,0,.07-.19.19.19,0,0,0,0-.13.93.93,0,0,0-.23-.16l-1.56-1c-.13-.06-.19-.13-.22-.13a.21.21,0,0,0-.13,0s-.1.07-.13.13l-.06.06-.07,0,.8-1.24.07,0-.07.06a.51.51,0,0,0-.06.2.18.18,0,0,0,0,.12.86.86,0,0,0,.19.16l1.56,1c.13.07.2.13.26.13a.21.21,0,0,0,.13,0,.22.22,0,0,0,.12-.13Z"/><path class="cls-1" d="M51.16,133.84l2.23.07-.92-.8a.59.59,0,0,0-.32-.16.41.41,0,0,0-.32.19l-.07-.06.61-.7.06.06a.55.55,0,0,0-.09.22.36.36,0,0,0,0,.16,1.07,1.07,0,0,0,.19.23l1.79,1.53,0,.06-3-.06,1.37,1.14c.13.1.22.16.32.13a.45.45,0,0,0,.22-.13l0-.06.07.06-.64.77-.07-.06a.51.51,0,0,0,.13-.32.38.38,0,0,0-.19-.29L51,134.54h-.1a.38.38,0,0,0-.22,0,.56.56,0,0,0-.16.12l-.06-.06Z"/><path class="cls-1" d="M54.25,130.62l.64.7-.06.07a.91.91,0,0,0-.61-.23.71.71,0,0,0-.51.19.45.45,0,0,0-.16.32.32.32,0,0,0,.1.29,1.06,1.06,0,0,1,.12.1.47.47,0,0,0,.29,0,4.15,4.15,0,0,0,.51-.13,2,2,0,0,1,.8-.1.79.79,0,0,1,.45.26.77.77,0,0,1,.19.64,1,1,0,0,1-.35.67c-.07.06-.13.09-.23.16a1.29,1.29,0,0,1-.28.12.47.47,0,0,1-.16.07s0,.06-.07.09V134h0l-.7-.8.06-.06a1.22,1.22,0,0,0,.74.29.93.93,0,0,0,.57-.19.45.45,0,0,0,.19-.35.55.55,0,0,0-.09-.32.18.18,0,0,0-.16-.1.61.61,0,0,0-.23,0,2,2,0,0,0-.44.09,3.25,3.25,0,0,1-.64.13.76.76,0,0,1-.38-.06.71.71,0,0,1-.32-.22.67.67,0,0,1-.19-.61,1,1,0,0,1,.31-.61c.07-.06.13-.09.23-.16a1.13,1.13,0,0,1,.25-.09c.1,0,.16-.07.19-.07a.09.09,0,0,0,0-.09.64.64,0,0,0-.07-.16Z"/><path class="cls-1" d="M57.16,128.61l.41.64-.06,0a.89.89,0,0,0-.35-.22,1,1,0,0,0-.29,0c-.07,0-.13.06-.26.12l-.16.13,1.22,1.82a1.22,1.22,0,0,0,.16.22s.06,0,.12,0a.42.42,0,0,0,.19-.06l.07-.06,0,.06-1.21.83,0-.06.06-.07c.06,0,.13-.09.13-.16s0-.06,0-.12a1,1,0,0,0-.13-.23l-1.21-1.82-.16.13a.65.65,0,0,0-.29.32.73.73,0,0,0,.1.51l-.07,0L55,130Z"/><path class="cls-1" d="M60.28,130.08l0,.06-1.3.67,0-.06.1,0,.16-.13s0-.06,0-.13a.83.83,0,0,0-.09-.25l-.87-1.66a.72.72,0,0,0-.16-.23s-.06,0-.12,0a.34.34,0,0,0-.19.07l-.1,0,0-.07,1.31-.67,0,.07-.1,0a.75.75,0,0,0-.16.13s0,.06,0,.13a.78.78,0,0,0,.1.25l.86,1.66a.67.67,0,0,0,.16.22s.06,0,.12,0a.26.26,0,0,0,.2-.06Z"/><path class="cls-1" d="M62,126.44l.26.7-.06,0a1,1,0,0,0-.29-.32.37.37,0,0,0-.29-.1.64.64,0,0,0-.29.06l-.19.07.77,2a1.2,1.2,0,0,0,.13.26s.06,0,.12.06a.46.46,0,0,0,.2,0l.09,0,0,.06-1.37.51,0-.06.1,0a.66.66,0,0,0,.15-.09s0-.07,0-.13,0-.13-.07-.25l-.76-2-.19.07a.65.65,0,0,0-.36.25.84.84,0,0,0,0,.55l-.06,0-.26-.7Z"/><path class="cls-1" d="M62.71,126.22l1.43-.29,0,.07h-.06a.69.69,0,0,0-.22.09s-.07.06-.07.1a1.45,1.45,0,0,0,0,.28l.29,1.34a1.47,1.47,0,0,0,.16.48.57.57,0,0,0,.22.16.73.73,0,0,0,.36,0,.6.6,0,0,0,.35-.19.7.7,0,0,0,.19-.32,1.64,1.64,0,0,0-.07-.64l-.25-1.11a.55.55,0,0,0-.1-.26.41.41,0,0,0-.12-.09c-.07,0-.16,0-.26,0v-.07l1-.19,0,.06h-.06a.32.32,0,0,0-.2.1.76.76,0,0,0-.09.16,1,1,0,0,0,0,.25l.22,1.06a3.7,3.7,0,0,1,.1.73.71.71,0,0,1-.22.45,1.14,1.14,0,0,1-.64.32,1.32,1.32,0,0,1-.58,0,.86.86,0,0,1-.44-.26,1.05,1.05,0,0,1-.23-.51l-.28-1.34a.78.78,0,0,0-.1-.28s-.06-.07-.09-.07a1,1,0,0,0-.26,0Z"/><path class="cls-1" d="M68.8,125.39l0,.76h-.06c-.07-.15-.1-.28-.16-.38a.63.63,0,0,0-.23-.16.69.69,0,0,0-.28,0h-.23l.13,2.17a2.9,2.9,0,0,0,0,.29l.1.09a.42.42,0,0,0,.19,0h.1v.07l-1.47.09v-.06H67a.32.32,0,0,0,.2-.06s.06-.07.06-.1a.65.65,0,0,0,0-.25l-.13-2.17H67a.71.71,0,0,0-.41.12.66.66,0,0,0-.2.48h-.06l0-.76Z"/><path class="cls-1" d="M70.55,125.68l-.09,1.14h.06a.59.59,0,0,0,.42-.12.89.89,0,0,0,.19-.48h.06l-.13,1.47H71a1.77,1.77,0,0,0-.06-.42.48.48,0,0,0-.16-.22.72.72,0,0,0-.32-.07l-.07.8v.29s0,.06.07.09.09,0,.16,0h.16a1.07,1.07,0,0,0,.64-.13,1.15,1.15,0,0,0,.38-.54h.06l-.19.89-2.42-.19v-.07h.09c.1,0,.16,0,.19,0s.07,0,.1-.09a.54.54,0,0,0,0-.26l.16-1.85v-.22a.16.16,0,0,0-.06-.13.52.52,0,0,0-.23-.06h-.09v-.07l2.36.19-.07.83h-.06a1,1,0,0,0-.13-.44.72.72,0,0,0-.28-.23,1.32,1.32,0,0,0-.45-.06Z"/><path class="cls-1" d="M75.66,126.57a.67.67,0,0,0-.67.19,2.24,2.24,0,0,0-.45.83,1.79,1.79,0,0,0-.06,1.08.56.56,0,0,0,.41.39.86.86,0,0,0,.39,0,1,1,0,0,0,.38-.32A2.09,2.09,0,0,0,76,128a4,4,0,0,0,.16-.83.89.89,0,0,0-.13-.45,2,2,0,0,0-.35-.19m0-.13a1.42,1.42,0,0,1,.92.7,1.46,1.46,0,0,1-1.75,2.08,1.49,1.49,0,0,1-1-.83,1.55,1.55,0,0,1,0-1,1.25,1.25,0,0,1,.73-.86,1.16,1.16,0,0,1,1.09-.07"/><path class="cls-1" d="M78.66,127.85l-.51,1.05.06,0a.67.67,0,0,0,.29.1.44.44,0,0,0,.25-.1,1.08,1.08,0,0,0,.26-.29l.06,0L78.43,130l-.06,0a.7.7,0,0,0,0-.58.61.61,0,0,0-.29-.28l-.06,0-.38.76a.72.72,0,0,0-.1.26.18.18,0,0,0,0,.12.7.7,0,0,0,.16.13l.1,0,0,.07-1.34-.64,0-.06.09,0a.24.24,0,0,0,.2,0s.06,0,.12-.06a.82.82,0,0,0,.13-.23l.83-1.66a1,1,0,0,0,.1-.25s0-.1,0-.13a1.08,1.08,0,0,0-.15-.13l-.1,0,0-.06,2.14,1-.35.73-.07,0a.76.76,0,0,0,.07-.44.51.51,0,0,0-.23-.32,1.34,1.34,0,0,0-.41-.23Z"/><path class="cls-1" d="M83.51,130.75l-.45.6-.07,0a1,1,0,0,0,.1-.38,1,1,0,0,0-.06-.29.84.84,0,0,0-.19-.19l-.16-.13-1.31,1.76c-.1.13-.13.19-.13.22a.21.21,0,0,0,0,.13.83.83,0,0,0,.13.16l.06.06,0,.07-1.18-.9,0-.06.07.06.19.1a.22.22,0,0,0,.13,0l.19-.19L82.17,130l-.16-.13a.67.67,0,0,0-.42-.16,1,1,0,0,0-.48.26l-.06,0,.45-.61Z"/><path class="cls-1" d="M84.69,132.06l-.83.79,0,0a.43.43,0,0,0,.38.16,1,1,0,0,0,.45-.26l.06.06-1,1.06-.07-.07a1.28,1.28,0,0,0,.2-.35.48.48,0,0,0,0-.29,1.53,1.53,0,0,0-.2-.25l-.57.57a3,3,0,0,0-.19.23s0,.06,0,.12A.26.26,0,0,0,83,134l.13.13a1.06,1.06,0,0,0,.58.32,1,1,0,0,0,.63-.16l.07.06-.74.55-1.72-1.73.07-.06.06.06a.27.27,0,0,0,.16.1h.13s.09-.06.19-.16l1.31-1.31c.09-.09.12-.16.16-.16a.18.18,0,0,0,0-.12c0-.07-.07-.13-.13-.2l-.06-.06.06-.06,1.66,1.69-.61.57-.06-.06a.75.75,0,0,0,.19-.42.74.74,0,0,0-.06-.35,2.26,2.26,0,0,0-.29-.35Z"/><path class="cls-1" d="M88,135.79l-.8.57,0-.06a1,1,0,0,0,.25-.64.85.85,0,0,0-.16-.57.71.71,0,0,0-.41-.29,1,1,0,0,0-.51,0,1.61,1.61,0,0,0-.64.32,4,4,0,0,0-.51.48.81.81,0,0,0-.19.51.83.83,0,0,0,.19.51,1,1,0,0,0,.38.32,1.65,1.65,0,0,0,.61.12l-.19.16a1.42,1.42,0,0,1-.58-.19,1.33,1.33,0,0,1-.45-.41,1.47,1.47,0,0,1-.31-.77,1.38,1.38,0,0,1,.09-.73,1.4,1.4,0,0,1,.48-.58,1.57,1.57,0,0,1,.73-.28,1.36,1.36,0,0,1,.8.12,1.61,1.61,0,0,1,.61.51,1.22,1.22,0,0,1,.25.58.62.62,0,0,0,.1.25s.06.07.09.07a.27.27,0,0,0,.16,0Z"/><path class="cls-1" d="M87.62,138.12l-.77.38a.81.81,0,0,0-.22.16s0,.06,0,.13a.44.44,0,0,0,0,.19l0,.09-.06,0-.67-1.31.06,0,0,.09a.29.29,0,0,0,.12.16s.07,0,.13,0a1,1,0,0,0,.26-.09l1.65-.83a1.75,1.75,0,0,1,.23-.13s0-.06,0-.13a.25.25,0,0,0-.06-.19v-.13l.06,0,.67,1.31-.06,0,0-.09a.55.55,0,0,0-.12-.16.15.15,0,0,0-.13,0,1.17,1.17,0,0,0-.26.1l-.7.35.45.89.7-.35c.13-.06.19-.12.22-.12a.15.15,0,0,0,0-.13.21.21,0,0,0-.07-.19l0-.07.06,0,.67,1.31-.06,0,0-.09a.56.56,0,0,0-.13-.16s-.06,0-.13,0a1,1,0,0,0-.25.1l-1.66.83c-.13.06-.19.13-.22.13s0,.06,0,.12a.24.24,0,0,0,.07.2l0,.09-.06,0-.67-1.3.06,0,0,.1a.75.75,0,0,0,.13.16s.06,0,.13,0a.94.94,0,0,0,.25-.09l.77-.39Z"/><path class="cls-1" d="M90.43,140.89l-1.25,1.85,1.15-.35a.78.78,0,0,0,.32-.16.36.36,0,0,0,0-.35l.06,0,.29.89-.06,0c-.07-.09-.1-.19-.13-.22a.25.25,0,0,0-.13-.06.58.58,0,0,0-.28.06l-2.24.7,0-.06,1.66-2.52-1.72.54c-.16.07-.26.13-.29.22a.39.39,0,0,0,0,.26l0,.06-.06,0-.29-1,.06,0c.07.16.1.25.2.28a.43.43,0,0,0,.32,0l1.91-.6.06-.07a.32.32,0,0,0,.1-.19.44.44,0,0,0,0-.19l.06,0Z"/><path class="cls-1" d="M91.29,145a.59.59,0,0,0-.48-.51,2.2,2.2,0,0,0-1,0,1.69,1.69,0,0,0-1,.42.59.59,0,0,0-.16.51.75.75,0,0,0,.16.35.83.83,0,0,0,.45.22,3.18,3.18,0,0,0,.76,0,2.24,2.24,0,0,0,.8-.22.85.85,0,0,0,.35-.32.52.52,0,0,0,.1-.41m.13,0a1.53,1.53,0,0,1-.23,1.15,1.45,1.45,0,0,1-1,.58,1.55,1.55,0,0,1-1-.16,1.57,1.57,0,0,1-.35-2.33,1.48,1.48,0,0,1,2-.16,1.15,1.15,0,0,1,.55.92"/><path class="cls-1" d="M89.79,149.76l-1-.13,0-2.52h.07v.1c0,.09,0,.16,0,.19l.09.1a2.07,2.07,0,0,0,.26,0l1.85,0c.13,0,.22,0,.25,0s.07,0,.1-.1,0-.09,0-.19v-.1h.07l0,1.5h-.06v-.12c0-.1,0-.16,0-.19l-.1-.1s-.12,0-.25,0l-1.79,0a.7.7,0,0,0-.29,0s-.06.06-.09.09a2.07,2.07,0,0,0,0,.26v.22a1.21,1.21,0,0,0,.06.38.59.59,0,0,0,.26.26,1.81,1.81,0,0,0,.51.22v.13Z"/><path class="cls-1" d="M91.19,152.06a.64.64,0,0,0-.28-.64,1.81,1.81,0,0,0-.9-.32,1.69,1.69,0,0,0-1.08.06.59.59,0,0,0-.32.45.81.81,0,0,0,0,.38.77.77,0,0,0,.38.35,2,2,0,0,0,.74.23,2.69,2.69,0,0,0,.83,0,.82.82,0,0,0,.44-.19.5.5,0,0,0,.16-.35m.16,0a1.42,1.42,0,0,1-.57,1,1.5,1.5,0,0,1-1.12.25,1.61,1.61,0,0,1-.89-.47,1.57,1.57,0,0,1,.35-2.33,1.55,1.55,0,0,1,1-.16,1.39,1.39,0,0,1,1,.6,1.31,1.31,0,0,1,.25,1.09"/><path class="cls-1" d="M90,157l-.92-.32,0-.06a1.3,1.3,0,0,0,.73-.19,1.17,1.17,0,0,0,.42-.51.83.83,0,0,0,0-.54,1.09,1.09,0,0,0-.39-.45,2.56,2.56,0,0,0-.57-.29,3.47,3.47,0,0,0-.7-.16.9.9,0,0,0-.54.13.93.93,0,0,0-.29.41,1.59,1.59,0,0,1-.07.2c0,.06,0,.16,0,.22l.55.19a.82.82,0,0,0,.22.06s.06,0,.13-.06a.76.76,0,0,0,.09-.16l0-.06.07,0-.45,1.31-.06,0a.73.73,0,0,0,0-.22.3.3,0,0,0-.06-.13s-.1,0-.19-.09l-.55-.19v-.61a6.16,6.16,0,0,1,.13-.61,2.24,2.24,0,0,1,.32-.6,2,2,0,0,1,.41-.35,1.3,1.3,0,0,1,.48-.16,1.73,1.73,0,0,1,.67.06,1.38,1.38,0,0,1,.86.77,1.76,1.76,0,0,1-.12,1.56l-.2.26a1.12,1.12,0,0,0-.15.19v.12s.06.1.12.13Z"/><path class="cls-1" d="M88.13,160.48l-.06,0a.69.69,0,0,0,0-.23,2.62,2.62,0,0,0-.26-.51l-.6-1-.61-.32a.94.94,0,0,0-.25-.09.24.24,0,0,0-.13,0s-.1.06-.13.13l-.06.13-.07,0,.77-1.4.06,0-.06.13a.47.47,0,0,0-.06.19s0,.1,0,.13l.22.16.51.28h1.37a1.79,1.79,0,0,0,.51,0,.23.23,0,0,0,.16-.16l.07,0-.64,1.18-.07,0,0-.06a.54.54,0,0,0,.06-.16.1.1,0,0,0,0-.06s-.19,0-.42,0H87.46l.51.87a.93.93,0,0,0,.29.35.06.06,0,0,0,.09,0c.07,0,.1-.1.2-.19l.06,0Z"/><path class="cls-1" d="M67.65,132.89V133a.59.59,0,0,0-.38.22,2.19,2.19,0,0,0-.38.71L65.48,137h-.09L64,133.78c-.16-.38-.28-.61-.31-.67a.64.64,0,0,0-.32-.13v-.09h1.91V133h-.06a.71.71,0,0,0-.35.07.14.14,0,0,0-.07.12.26.26,0,0,0,0,.13c0,.06.07.19.16.38l.86,2,.8-1.78a1.42,1.42,0,0,0,.16-.45.42.42,0,0,0,0-.19.29.29,0,0,0,0-.16.53.53,0,0,0-.13-.1,1,1,0,0,0-.35-.06v-.1h1.31Z"/><path class="cls-1" d="M70.23,136.78v.09h-2.1v-.09h.13a.52.52,0,0,0,.28-.07.22.22,0,0,0,.13-.12,1,1,0,0,0,0-.39v-2.64a1.21,1.21,0,0,0,0-.39.22.22,0,0,0-.13-.12.49.49,0,0,0-.25-.07h-.13v-.09h2.11V133h-.13a.56.56,0,0,0-.29.07.3.3,0,0,0-.13.12s0,.16,0,.39v2.64a1.14,1.14,0,0,0,0,.39.3.3,0,0,0,.13.12.53.53,0,0,0,.26.07Z"/><path class="cls-1" d="M74.48,132.89V134h-.1a1.26,1.26,0,0,0-.22-.54.94.94,0,0,0-.32-.26,1.06,1.06,0,0,0-.38-.06h-.29v3.09a1.25,1.25,0,0,0,0,.39.25.25,0,0,0,.13.12.54.54,0,0,0,.29.07h.12v.09h-2.1v-.09h.13a.52.52,0,0,0,.28-.07.22.22,0,0,0,.13-.12,1,1,0,0,0,0-.39v-3.09h-.28a1,1,0,0,0-.61.16,1.09,1.09,0,0,0-.32.67h-.13v-1.09h3.61Z"/><path class="cls-1" d="M60.63,146.06l.13-.51.35.06-.09.51Zm-.32-1,.07.22,0,.16-.1.13-.06.13,0,.28-.06.1,1.47.26.09-1-1.27-.29h-.07Z"/><path class="cls-1" d="M60.47,146.79l.13-.51.35.07-.09.51Zm-.41-.57,0,.06v.23l-.1.06-.06.19,1.59.29,0-.67-1.43-.26Z"/><path class="cls-1" d="M60.6,147.69l-.38-.07.13-.51.35.07Zm-.73-.83-.1.09s-.06.13,0,.1.06.13.06.13l-.06.06v.1l-.06,0,0,.06,0,.07v.06l1.81.41v-.76Z"/><path class="cls-1" d="M60.06,148.39l.13-.51.35.06-.13.51Zm-.48-.67-.06.06,0,.07.06,0-.06.09v.16l0,.16,2,.45V148l-1.88-.42Z"/><path class="cls-1" d="M60.28,149.44l-.38-.06.13-.51.35.06Zm-.89-1h-.06l0,.13-.1.09-.06.1,0,.13-.1.09s.06.23.06.23l-.06.12,2.42.55V149Z"/><path class="cls-1" d="M59.64,150.33l.13-.51.35.07-.13.51Zm-.76-.79-.07.16-.15.06,0,.26-.06.19,2.9.7V150L59,149.44Z"/><path class="cls-1" d="M63.15,146l0-.51.38,0,.07.48Zm1.5-.35,0-.06.07-.1,0-.09-.1-.1,0-.06-2.74.13-.06.92,2.9-.35-.07-.13a1.57,1.57,0,0,0,0-.16"/><path class="cls-1" d="M63.22,146.22l.38,0,.06.48-.41,0Zm-1.37.16,0,.67,3.19-.48,0-.06v-.13l-.13-.06v-.2l-.06-.09Z"/><path class="cls-1" d="M63.34,147l.39,0,.06.47-.41,0Zm-1.53.19V148l3.51-.67-.06,0,0-.13-.1-.06V147l-.06-.13.06-.07-.06-.09Z"/><path class="cls-1" d="M63.44,147.85l.38,0,.07.52-.42,0Zm-1.63.28v.71l3.7-.71,0-.06V148l-.07-.07-.09-.16-.07-.06,0-.1,0-.06-.06-.13Z"/><path class="cls-1" d="M63.57,148.74l.38,0,.06.51-.41.06Zm-1.76.22v.9l4-.71,0-.09-.09-.16-.16-.13,0-.13,0-.09,0-.1v-.16l0-.06Z"/><path class="cls-1" d="M63.79,149.86l.38,0,.07.51-.42.07Zm-2,.19V151l4.34-.76.1-.19-.07-.42-.12,0-.2-.22Z"/><path class="cls-1" d="M85.71,149.57a.94.94,0,0,1-.35.16l-.23,0s-.19-.07-.25,0a1.76,1.76,0,0,1-.39.12.13.13,0,0,1-.09-.12c0-.07,0-.2-.07-.2s-.19,0-.19,0a.4.4,0,0,0,0-.13l-.25,0a.7.7,0,0,1-.13-.1,2.28,2.28,0,0,0-.16-.32h-.16l-.26,0a.59.59,0,0,0-.19-.06c-.06,0-.19-.1-.25.09s-.1.35-.16.35a.4.4,0,0,0-.19,0s-.1,0-.16.07-.26,0-.29.09-.41.2-.45.23-.35.09-.41.09-.54,0-.61-.09-.09-.16-.19-.16,0-.07-.13-.07h-.19s-.28-.25-.28-.32,0-.09-.1-.12l-.26-.1s-.19-.13-.28-.06-.26,0-.26.09-.16.16-.16.16a.47.47,0,0,0-.16.07,1.54,1.54,0,0,1-.28.09c-.1,0-.13.13-.13.13a1.17,1.17,0,0,1-.29.22c-.09,0,0,.07-.16.07a.91.91,0,0,1-.35-.1.07.07,0,0,0-.09,0c-.07,0-.2-.06-.2-.06l-.19-.07-.19-.16h-.13l-.22,0a2.62,2.62,0,0,1-.35-.13s-.29-.19-.29-.32-.06-.12-.09-.16,0-.16.16-.12l.47.06a3.89,3.89,0,0,0,.74.1.38.38,0,0,1,.29.06s.06.29.12.32.13.09.19.09a.8.8,0,0,0,.32-.22c.07-.06.51-.45.55-.51a.49.49,0,0,1,.31-.22c.13,0,.36-.16.61-.16h.32a.88.88,0,0,0,.29-.07s.16.2.25.23.16.09.23.13l.35.28c.06.1.28.13.28.13s.16-.06.23,0a.65.65,0,0,0,.32.19h.25c.1,0,.29-.19.35-.22s.16,0,.16,0a.38.38,0,0,0,.19,0c.07,0,.13-.1.19-.1a.33.33,0,0,0,.23-.06.67.67,0,0,0,.06-.16l.16-.1.38-.06.55.16.25.32.45.16.44,0a5.23,5.23,0,0,1,.55.22s0,.19,0,.22.09.2,0,.26m1.81-2.71a3.84,3.84,0,0,0-1-.23c-.19.07-.35.13-.35.16s-.32,0-.32.16.07.16.1.32-.19.19-.19.29.22.16.22.25a.25.25,0,0,1-.35.23c-.26-.1-.16.16-.26.09s-.32,0-.22-.16h-.35s-.13-.35-.19-.35-.07-.09-.19-.12-.19-.1-.23-.1h-.22a.09.09,0,0,1-.13,0c-.09-.06-.13,0-.16-.13a.75.75,0,0,0-.19-.16l-.13,0s-.16.1-.19.2-.13.12-.16.09-.12,0-.12-.09-.1-.16-.1-.16h-.13l-.22.06-.07.13a1.14,1.14,0,0,0-.19.09s0,0-.06.07a1.26,1.26,0,0,0-.19.16l-.13.16-.16-.07-.16.1a.4.4,0,0,1-.13.06s-.12,0-.12,0-.13-.1-.1-.13a.21.21,0,0,0,0-.19l-.19-.13-.29-.06s-.19,0-.19-.06-.22-.16-.22-.16l-.13,0s-.13,0-.16,0a1.13,1.13,0,0,1-.16.13l-.13.1-.16-.1-.19-.13h-.19l-.32.1-.16.13s-.19,0-.19,0h-.22l-.23.09-.06.13-.13.07-.16,0-.06.12v.07l-.1.16-.22.06-.35-.16a6.57,6.57,0,0,0-.86,0,4.55,4.55,0,0,1-1,.06,2.39,2.39,0,0,0-.64,0c-.09,0-.38.23-.41.19s-.42.1-.45-.22V149l-.06.07-.07.06-4.17.06-.1-.12,0-.26,0-.22v-.35H69l-.06.06-.22.07-.1,0h-.38l-.16-.06-.16-.26-.16-.12.06-.16.1,0,.06-.1s0,0,0-.1-.13-.09-.13-.12-.06-.1-.09-.13-.19-.16-.23-.13-.12-.09-.16,0a.68.68,0,0,1-.06.16c0,.06.06.1,0,.13s0,0-.13,0-.09,0-.13.06a.34.34,0,0,1-.06.1s0,.1,0,.13-.19.09-.16.09.1.1.1.1l0,.13s-.16,0-.16,0a1.06,1.06,0,0,0-.09.13l0,.09s0,0,0,0a.12.12,0,0,1-.06.1l-.22.16s0,.13,0,.13l-.07.19s0,.09,0,.13.13.15.13.15a.74.74,0,0,1,0,.16.68.68,0,0,1-.12.23s.06.13.15.06.52-.09.52-.09.19.12.25.09a.61.61,0,0,1,.32-.06s.29,0,.35.06a.38.38,0,0,0,.19,0h.19c.1,0,1.18,0,1.18,0l1.63-.06h1.28l1.37,0,.7,0,.35,0a1.49,1.49,0,0,0,.22,0c.07,0,.1.31.1.41a.53.53,0,0,0,0,.22.25.25,0,0,0,.26.16H85.83s.1-.06.13,0,.07.07.1.13a.59.59,0,0,1,0,.23c0,.09,0,.16,0,.25s.06.35.06.38.09.07.19.1a1.13,1.13,0,0,0,.35,0,1.76,1.76,0,0,0,.32,0h.22a1.24,1.24,0,0,0,.2-.06s.31-1.28.31-1.5a13.38,13.38,0,0,0-.16-3.06"/><path class="cls-1" d="M50.14,148.07s.35.35.41.32.26-.16.29-.16,0-.22.16-.22a.39.39,0,0,1,.29.12s0,.07.06.07a.87.87,0,0,0,.26-.07h.12l0,.07h.1l.22.09s0,.07.07.07,0,0,.06,0,.07-.13.13-.13h.16l.13.06.12.07h.1l.1.16-.07.09,0,.19c.13,0,.22-.19.22-.19s0-.09.07-.09.06,0,.12,0l.16.06h.19s0-.06.13,0a2.83,2.83,0,0,1,.39.22l.38.13s0,0,.06.07a.22.22,0,0,0,.1.09l.06.1s0-.13.07-.1a.69.69,0,0,0,.12.1l.16.06a.34.34,0,0,1,.1.06s.06,0,.06.07v.13s-.06,0,0,.09a.21.21,0,0,0,.16.07s.13,0,.13,0a2.42,2.42,0,0,0,.32-.07c.06,0,.13,0,.16-.09s0-.1.06-.13,0-.07.1-.1.32-.06.32-.09l.12.09h.16c.07,0-.06,0,.07,0a.91.91,0,0,0,.22-.09h.13a0,0,0,0,0,.06,0s.07,0,.1,0,0,0,0,0,.09-.06.13-.06.12-.06.16-.06h0l.06,0,.07,0,.09.06s0,0,.13,0a.24.24,0,0,1,.16,0h.19l.22.1v.16l.1.12.09.1s0,.29-.06.29-.13.22-.13.22l-.22.16-.16.09,3.13.87,4.59-.93-.06-.22.06-.23,0-.06s.06,0,0-.06-.06-.1,0-.13a.7.7,0,0,1,.13-.1h.35l-.07.16a1,1,0,0,1,0,.19v.2c0,.06,0,.31,0,.31l-.19.1c-.06,0-.12,0-.19,0s-.06,0-.16,0a.5.5,0,0,0-.25.07.17.17,0,0,1-.1,0s0,0-.06,0l0,.07c0,.06,0,0,0,.12s0,.13,0,.16,0,.16,0,.16h0a.34.34,0,0,0,0,.1v.22l-.06.07c-.06,0-.13.09-.19.09s0,0-.1,0a3.22,3.22,0,0,1-.54,0s-.25.06-.32,0a2.91,2.91,0,0,0-.51,0l-.67,0-.25-.09-.39,0h-.67a4.55,4.55,0,0,0-.51,0s0,0-.06.06-.45-.06-.61,0a2,2,0,0,1-.57.09H57.76l-7.46.26L50,151.1s0-.64.06-.83-.32-.57-.25-.73a2.21,2.21,0,0,0,.16-.67c0-.07-.13-.45-.13-.54.22,0,.32-.26.32-.26"/><path class="cls-1" d="M86.85,151.93s0,.1-.09.1h-.7a.12.12,0,0,1-.1-.1v-.26a.1.1,0,0,1,.1-.09h.7a.1.1,0,0,1,.09.09Zm-.31,1a.11.11,0,0,1-.1.09h-1s-.1,0-.1-.09v-.35a.11.11,0,0,1,.1-.1l1.15,0a.1.1,0,0,1,.09.09Zm-.58,2.2a.1.1,0,0,1-.09.09H85.2a.1.1,0,0,1-.1-.09v-.45a.1.1,0,0,1,.1-.09l.76,0a.12.12,0,0,1,.1.1Zm-.51.83a.1.1,0,0,1-.09.09H84.27a.1.1,0,0,1-.09-.09v-.42a.1.1,0,0,1,.09-.09h1.09a.1.1,0,0,1,.09.09Zm-.19.83a.1.1,0,0,1-.1.09h-.89a.1.1,0,0,1-.09-.09v-.48s0-.1.09-.1h1a.1.1,0,0,1,.1.1Zm-.61,1a.1.1,0,0,1-.09.09h-.38a.1.1,0,0,1-.1-.09v-.45a.11.11,0,0,1,.1-.1h.63a.11.11,0,0,1,.1.1Zm-.6-1.82a.1.1,0,0,1-.1.09H82.87s-.1,0-.1-.09v-.42a.1.1,0,0,1,.1-.09H84s.1,0,.1.09Zm0,.83a.1.1,0,0,1-.1.09H82.23s-.1,0-.1-.09v-.48a.12.12,0,0,1,.1-.1H84a.11.11,0,0,1,.1.1Zm-.9,1v-.45a.11.11,0,0,1,.1-.09h.64a.1.1,0,0,1,.09.09v.45a.1.1,0,0,1-.09.09h-.64c-.06,0-.1-.06-.1-.09m.67.83a.1.1,0,0,1-.09.09H82.55s-.1,0-.1-.09v-.42a.1.1,0,0,1,.1-.09h1.31a.1.1,0,0,1,.09.09Zm-1.5,0a.1.1,0,0,1-.09.09H81.05s-.1,0-.1-.09v-.42a.11.11,0,0,1,.1-.09h1.18a.1.1,0,0,1,.09.09Zm-1.46,0a.1.1,0,0,1-.1.09H79.61a.1.1,0,0,1-.09-.09v-.42a.1.1,0,0,1,.09-.09h1.15s.1,0,.1.09Zm-1.44,0a.1.1,0,0,1-.09.09H77.89a.1.1,0,0,1-.09-.09v-.42a.1.1,0,0,1,.09-.09h1.44a.1.1,0,0,1,.09.09Zm-1.78,0a.11.11,0,0,1-.1.09H76.1a.1.1,0,0,1-.09-.09l0-.42a.1.1,0,0,1,.09-.09h1.47s.1,0,.1.09Zm-1.73-1.22s0-.09.07-.09l1,0s.06,0,.06.09v.48s0,.1-.06.1H76s-.06,0-.06-.1Zm-.06-.57-.1-.45a.11.11,0,0,1,.1-.09l1.24,0a.1.1,0,0,1,.1.09v.48a.11.11,0,0,1-.1.1H75.94c-.06,0-.09-.07-.09-.1m-.29,2.3c-.06,0-.16.13-.22.13l-.38.19c-.1,0,0-.1-.07-.13s-.06-.19-.06-.22a1.46,1.46,0,0,1,0-.36.34.34,0,0,0,.12-.15.41.41,0,0,1,.16-.1,1.31,1.31,0,0,1,.35,0c.1,0,.16-.13.2-.13a.16.16,0,0,1,.12.1s0,.16,0,.28a2,2,0,0,0,0,.29.36.36,0,0,1-.23.13m-.89.19c0,.13-.06.16-.13.16s-.09.09-.19.09h-.26a.69.69,0,0,0-.35.1,1.46,1.46,0,0,1-.51,0c-.06,0-.12,0-.16,0s0-.1,0-.19,0-.26-.06-.32.06-.16.16-.23.13,0,.25,0,.1,0,.19,0,.23,0,.32-.06.29-.07.39-.1a1,1,0,0,1,.25-.06c.07,0,.13.09.13.19s.06.13,0,.22,0,.16,0,.29m-2-1a.73.73,0,0,1,0-.26l.06,0a3,3,0,0,0,.45-.09,3.87,3.87,0,0,1,.42-.16h.51l.09.13v.35c0,.06,0,.06,0,.16s0,0-.06,0,0,0-.13,0-.09,0-.16,0h-.25a1.43,1.43,0,0,0-.29.1,1.5,1.5,0,0,1-.35,0,.26.26,0,0,1-.16-.07c-.13-.06-.1-.16-.13-.22m-.06,1.15c0,.06,0,.09-.07.22s0,0-.06,0l-.22.07h-.19c-.1,0-.45.06-.48.06h-.39c-.12,0-.12,0-.19,0s-.13-.09-.13-.13,0-.12,0-.16,0-.16,0-.22a.48.48,0,0,1,0-.16c.06-.09.16,0,.28-.06s.2,0,.29,0a1.06,1.06,0,0,0,.29,0,1.91,1.91,0,0,0,.38-.1.45.45,0,0,1,.29,0,.13.13,0,0,1,.09,0,.63.63,0,0,0,0,.23c.06.09,0,.12,0,.22m-1.76-1.05a.2.2,0,0,1,0-.16H71l0,0a.67.67,0,0,0,.19-.06h.32a1.28,1.28,0,0,0,.32-.1,1.36,1.36,0,0,1,.35,0l.19,0a.83.83,0,0,1,0,.22c0,.1,0,.26,0,.29s-.1.09-.1.09l-.06.07-.35,0c-.07,0-.07,0-.07,0a1.08,1.08,0,0,0-.22,0,2,2,0,0,1-.45,0H71c-.13,0,0,0,0-.06a.38.38,0,0,0,0-.19c0-.1,0-.13,0-.19m-.22-.13v.19c0,.13,0,.1,0,.13a.47.47,0,0,1-.07.16l-.09.06c-.1,0-.13,0-.23,0s-.06,0-.12,0a1.21,1.21,0,0,1-.29,0,.93.93,0,0,0-.29,0h-.12a.34.34,0,0,1-.16,0,.28.28,0,0,1-.1-.13c0-.06,0-.06,0-.12a.56.56,0,0,1,0-.23l.19,0,.16-.06s.09,0,.16,0,.16,0,.22,0l.51,0a.76.76,0,0,1,.29.1c.06,0,0,0,0,0m-.13,1.05s0,.13,0,.29-.13.19-.19.19-.19.06-.25.06a.59.59,0,0,0-.26,0,1,1,0,0,0-.19-.12s-.07-.13-.1-.16v-.19s-.06-.13,0-.19.19,0,.19,0h.19a1,1,0,0,0,.26,0,.49.49,0,0,1,.19,0,.42.42,0,0,1,.19,0v.16m-1.24.29v.16l-.13.09c-.06,0,0,0-.19,0h-.29c-.09,0-.22-.06-.29-.06s0-.1-.06-.13,0-.09-.06-.13,0-.25,0-.25a.33.33,0,0,1,.12-.06c.07,0,0,0,.1,0a.24.24,0,0,1,.22,0s.2,0,.26,0h.29l0,.06v.32M68,158.79h-.13s-.06,0-.09-.07-.07-.28-.07-.28v-.19h0s.1,0,.13,0,0,0,.1,0a.18.18,0,0,1,.13,0h.38s.32-.07.35,0a.42.42,0,0,1,.06.23v.13a.18.18,0,0,1,0,.12s0,.1,0,.13-.1.06-.13,0a.52.52,0,0,1-.22,0c-.07,0-.22,0-.29,0s-.06,0-.19-.06m0,.67c0,.06,0,.16,0,.22s0,.07-.06.1a1.25,1.25,0,0,1-.23,0c-.09,0-.12,0-.22,0a1.53,1.53,0,0,0-.25-.06c-.1,0-.23,0-.29-.07a.3.3,0,0,0-.16,0c-.06,0-.06,0-.1-.06s0-.07,0-.1v-.1s0-.15,0-.19l.19,0,.16.07a.34.34,0,0,0,.25,0c.1,0,.1,0,.13,0s.22,0,.32,0,0,0,.06,0a1.25,1.25,0,0,0,.19,0c.1,0,0,.06,0,.09s0,0,0,.1m-1.78-.89a.84.84,0,0,0-.16-.07s0-.16,0-.19,0-.19,0-.19.06,0,.06-.07h.29c.09,0,.16,0,.19,0s.38,0,.45,0a.27.27,0,0,0,.16,0l.19,0a.06.06,0,0,1,0,.09s0,.16,0,.2v.12a.45.45,0,0,1-.06.13l-.1,0a1.09,1.09,0,0,1-.29,0h-.19l-.38-.06Zm.12.76a1.81,1.81,0,0,1-.25.19l-.23,0a.87.87,0,0,1-.35-.06.85.85,0,0,0-.22-.07c-.06,0-.1,0-.13,0a.19.19,0,0,1-.09-.16c0-.09,0-.06,0-.13s0-.22,0-.25l.06-.07.29.13a3.81,3.81,0,0,0,.54.07s.23.06.23.09.12.07.12.07,0,.25,0,.25m-1.5-1.12a.14.14,0,0,0-.12,0s-.07-.12-.07-.16v-.19a1.31,1.31,0,0,1,.07-.19H65l0,0a1.15,1.15,0,0,1,.25,0,1.33,1.33,0,0,1,.26,0l.25.06a.39.39,0,0,1,0,.26c0,.06,0,.16-.06.22s0,0-.16,0h-.19c-.1,0-.07,0-.1,0a2.67,2.67,0,0,0-.32-.06s-.06,0-.13-.07m0,.64a.42.42,0,0,1-.06.19c0,.07,0,0-.1,0a.53.53,0,0,1-.22,0,.21.21,0,0,0-.16,0L64,159h-.16a.51.51,0,0,1-.15-.06c-.07,0,0,0,0,0a.15.15,0,0,1-.09,0s0-.16.06-.2,0-.15,0-.15a.26.26,0,0,1,.1-.07c.06,0,.06,0,.12,0s.16,0,.2,0l.35,0c.09,0,.19,0,.22,0a.6.6,0,0,1,.22.06s0,.1,0,.16m-1.37-4.27h-.7a.11.11,0,0,1-.1-.1v-.6a.11.11,0,0,1,.1-.1l.77,0a.1.1,0,0,1,.09.09l0,.61c-.06.1-.1.13-.13.13m-.06.86a.1.1,0,0,1-.1.09h-1a.1.1,0,0,1-.09-.09v-.51s0-.1.09-.1l1.09,0a.1.1,0,0,1,.09.1Zm-.07,1.15a.1.1,0,0,1-.09.09h-1.4a.1.1,0,0,1-.1-.09v-.39a.1.1,0,0,1,.1-.09h1.49a.1.1,0,0,1,.1.09Zm0,.83a.1.1,0,0,1-.09.09h-.64s-.1,0-.1-.09V157a.12.12,0,0,1,.1-.1l.67,0a.1.1,0,0,1,.09.1Zm-.13.92s0,.1-.09.1H61.91a.11.11,0,0,1-.1-.1V158a.12.12,0,0,1,.1-.1h1.24a.12.12,0,0,1,.1.1Zm-.12.93a.1.1,0,0,1-.1.09h-1.5a.1.1,0,0,1-.09-.09v-.39a.1.1,0,0,1,.09-.09l1.57,0a.1.1,0,0,1,.09.09Zm-3-.77s-.1,0-.1-.09V158a.1.1,0,0,1,.1-.09h1.5a.1.1,0,0,1,.09.09v.39a.1.1,0,0,1-.09.09Zm1.08.8a.1.1,0,0,1-.09.09h-.86a.1.1,0,0,1-.1-.09v-.38a.1.1,0,0,1,.1-.1h.86a.1.1,0,0,1,.09.1Zm-1.4-.77a.1.1,0,0,1-.1.1h-1.3a.1.1,0,0,1-.1-.1v-.35a.1.1,0,0,1,.1-.09h1.34a.1.1,0,0,1,.09.09v.35Zm0,.83a.11.11,0,0,1-.1.1h-.86a.1.1,0,0,1-.09-.1V159s0-.1.09-.1h.9a.11.11,0,0,1,.09.1v.38Zm-1.12,0s0,.1-.09.1H57.32a.1.1,0,0,1-.1-.1V159a.11.11,0,0,1,.1-.1h1.21a.11.11,0,0,1,.09.1Zm-1.59,0a.1.1,0,0,1-.1.1H55.72a.11.11,0,0,1-.1-.1V159a.11.11,0,0,1,.1-.09h1.21s.1,0,.1.09Zm-1.92-.63a.11.11,0,0,1-.09-.1v-.38s0-.1.09-.1h1.34a.1.1,0,0,1,.1.1v.38a.11.11,0,0,1-.1.1Zm.32.67a.1.1,0,0,1-.09.09H54.13a.1.1,0,0,1-.1-.09V159a.1.1,0,0,1,.1-.09h1.21a.1.1,0,0,1,.09.09Zm-1.82-.64a.1.1,0,0,1-.09-.1v-.38s0-.1.09-.1h1a.11.11,0,0,1,.09.1v.38s0,.1-.09.1Zm-.76-1.12v-.51a.1.1,0,0,1,.1-.09H54s.1,0,.1.09v.51a.12.12,0,0,1-.1.1H53c-.07,0-.1,0-.1-.1m-.57-1-.1-.32a.11.11,0,0,1,.1-.1H53a.11.11,0,0,1,.09.1v.32a.1.1,0,0,1-.09.09h-.64a.08.08,0,0,1-.09-.09m-.36-.7v-.42a.11.11,0,0,1,.1-.09h.86s.1,0,.1.09v.42a.1.1,0,0,1-.1.09H52c-.06,0-.1-.06-.1-.09m-.06-.86h-.22a.12.12,0,0,1-.1-.1l-.16-.67a.11.11,0,0,1,.1-.1h.38a.12.12,0,0,1,.1.1V155a.09.09,0,0,1-.1.1m-.8-1.34v-.39a.1.1,0,0,1,.1-.09h1.37s.1,0,.1.09v.39a.11.11,0,0,1-.1.09H51.16c-.07,0-.1-.06-.1-.09m-.12-.9v-.51a.1.1,0,0,1,.09-.09h.8a.1.1,0,0,1,.09.09v.51a.1.1,0,0,1-.09.1H51c-.06,0-.09-.06-.09-.1m1.14-.48a.11.11,0,0,1,.1-.09h1.15a.1.1,0,0,1,.09.09v.39a.1.1,0,0,1-.09.09H52.18s-.1,0-.1-.09Zm1.79,0a.1.1,0,0,1,.1-.09H55.5a.1.1,0,0,1,.09.09v.45s0,.1-.09.1H53.93a.1.1,0,0,1-.09-.1v-.45Zm2.17-.12a.11.11,0,0,1,.1-.1h1a.1.1,0,0,1,.09.1v.44a.1.1,0,0,1-.09.1h-1a.1.1,0,0,1-.1-.1Zm1.53-.1a.1.1,0,0,1,.1-.09h1.27s.1,0,.1.09v.58a.1.1,0,0,1-.1.09H57.67a.1.1,0,0,1-.1-.09ZM60,153a.1.1,0,0,1,.09.1v.44a.1.1,0,0,1-.09.1H58.62a.1.1,0,0,1-.09-.1v-.44s0-.1.09-.1Zm-.61-.86a.1.1,0,0,1,.1-.09h1.53a.1.1,0,0,1,.09.09v.38a.1.1,0,0,1-.09.1H59.52a.1.1,0,0,1-.1-.1Zm2,.89v.42a.1.1,0,0,1-.1.09h-1a.1.1,0,0,1-.09-.09V153a.1.1,0,0,1,.09-.09h1c.07,0,.1,0,.1.09M61,154.64a.1.1,0,0,1-.09-.09v-.61s0-.1.09-.1h1.44a.12.12,0,0,1,.1.1v.61a.11.11,0,0,1-.1.09Zm-.35,1.05a.1.1,0,0,1-.09-.09v-.51s0-.1.09-.1h1.12a.11.11,0,0,1,.1.1v.51a.11.11,0,0,1-.1.09Zm.13,1.34a.1.1,0,0,1,.1-.09h1.46a.1.1,0,0,1,.1.09v.45a.11.11,0,0,1-.1.1H60.86a.11.11,0,0,1-.1-.1Zm-1-.32a.1.1,0,0,1-.09-.09v-.38a.1.1,0,0,1,.09-.1h1.66a.11.11,0,0,1,.1.1v.38a.1.1,0,0,1-.1.09Zm-.83.39a.12.12,0,0,1,.1-.1h1.47a.1.1,0,0,1,.09.1v.44a.1.1,0,0,1-.09.1H59.07a.11.11,0,0,1-.1-.1Zm-.86-.29a.1.1,0,0,1-.09-.1v-.51a.1.1,0,0,1,.09-.09l1.28,0a.1.1,0,0,1,.09.09l0,.54a.1.1,0,0,1-.09.1Zm-.57.89s-.1,0-.1-.09v-.45a.1.1,0,0,1,.1-.09h1.12a.1.1,0,0,1,.09.09v.45a.1.1,0,0,1-.09.09Zm-.93.42a.12.12,0,0,1,.1-.1H58a.1.1,0,0,1,.09.1v.48a.1.1,0,0,1-.09.09H56.71s-.1,0-.1-.09Zm-.83-.93a.11.11,0,0,1,.1-.09h1.34s.1,0,.1.09v.51a.11.11,0,0,1-.1.1H55.88a.11.11,0,0,1-.1-.1Zm-.92-.48s-.1,0-.1-.09v-.35a.12.12,0,0,1,.1-.1h1.37a.11.11,0,0,1,.1.1v.35a.11.11,0,0,1-.1.09Zm-.64.61a.1.1,0,0,1,.1-.09h1.24s.1,0,.1.09v.51a.12.12,0,0,1-.1.1H54.32a.1.1,0,0,1-.1-.1Zm-.86-1a.11.11,0,0,1,.1-.1h1.11a.12.12,0,0,1,.1.1v.35a.11.11,0,0,1-.1.1H53.46a.11.11,0,0,1-.1-.1Zm-.1-1a.11.11,0,0,1,.1-.09H55a.1.1,0,0,1,.1.09v.58a.1.1,0,0,1-.1.09H53.36s-.1,0-.1-.09Zm.32-1.24s.1,0,.1.09v.8a.11.11,0,0,1-.1.1H52.31a.11.11,0,0,1-.1-.1v-.8a.1.1,0,0,1,.1-.09Zm1.15-.54a.1.1,0,0,1-.09.09H53a.1.1,0,0,1-.1-.09v-.32a.11.11,0,0,1,.1-.1h1.69a.1.1,0,0,1,.09.1Zm.7.54a.1.1,0,0,1,.1.09v.61a.11.11,0,0,1-.1.1H54.06a.11.11,0,0,1-.09-.1v-.61a.1.1,0,0,1,.09-.09Zm1.18-.48s0,.1-.09.1H55.08a.11.11,0,0,1-.09-.1v-.48a.1.1,0,0,1,.09-.09h1.44a.1.1,0,0,1,.09.09Zm.48.42s.1,0,.1.09v.61a.1.1,0,0,1-.1.09H55.82a.1.1,0,0,1-.1-.09v-.61a.1.1,0,0,1,.1-.09Zm1.15-.55a.11.11,0,0,1-.1.1H56.93a.1.1,0,0,1-.09-.1v-.38s0-.1.09-.1h1.21a.11.11,0,0,1,.1.1Zm-1,2.3a.11.11,0,0,1-.1-.1v-.47a.11.11,0,0,1,.1-.1H58.5a.1.1,0,0,1,.09.1v.47a.1.1,0,0,1-.09.1Zm-1.91.1a.11.11,0,0,1-.1-.1v-.57a.1.1,0,0,1,.1-.1H56.8a.1.1,0,0,1,.1.1v.57a.11.11,0,0,1-.1.1Zm1.21.35a.1.1,0,0,1,.09-.1H57.7a.1.1,0,0,1,.09.1v.38a.1.1,0,0,1-.09.09H56.61a.1.1,0,0,1-.09-.09Zm2.36-1.63a.11.11,0,0,1-.1.1H57.57a.12.12,0,0,1-.1-.1v-.48a.11.11,0,0,1,.1-.09h1.21s.1,0,.1.09Zm.25-.06v-.61a.12.12,0,0,1,.1-.1h1.18a.12.12,0,0,1,.1.1v.61a.11.11,0,0,1-.1.09H59.23a.11.11,0,0,1-.1-.09m.9.51a.1.1,0,0,1,.09.09v.54a.1.1,0,0,1-.09.1H58.85a.1.1,0,0,1-.1-.1v-.54a.1.1,0,0,1,.1-.09ZM61.56,153a.1.1,0,0,1,.09-.09h.87a.1.1,0,0,1,.09.09v.45a.1.1,0,0,1-.09.09h-.87a.1.1,0,0,1-.09-.09Zm.06-1.08a.1.1,0,0,1,.1-.1h1.11a.1.1,0,0,1,.1.1v.57a.11.11,0,0,1-.1.1H61.72a.12.12,0,0,1-.1-.1Zm1.37.95h.61a.12.12,0,0,1,.1.1v.51a.11.11,0,0,1-.1.09H63a.1.1,0,0,1-.09-.09v-.51c0-.06,0-.1.09-.1m.45-.83a.1.1,0,0,1,.1-.09h1.18a.1.1,0,0,1,.09.09v.39a.1.1,0,0,1-.09.09H63.54a.1.1,0,0,1-.1-.09Zm1.79,0a.1.1,0,0,1,.09-.1H66.6a.1.1,0,0,1,.09.1v.25s0,.1-.09.1H65.32a.11.11,0,0,1-.09-.1Zm.44-1.15a.15.15,0,0,1,.16-.16h1a.15.15,0,0,1,.16.16V151a.15.15,0,0,1-.16.16h-1a.15.15,0,0,1-.16-.16Zm1.06-1a.15.15,0,0,1,.16-.16h1a.15.15,0,0,1,.16.16V150a.15.15,0,0,1-.16.16h-1a.15.15,0,0,1-.16-.16Zm1.59,0a.15.15,0,0,1,.16-.16h1a.15.15,0,0,1,.16.16V150a.16.16,0,0,1-.16.16h-1a.15.15,0,0,1-.16-.16Zm1.72-.1a.16.16,0,0,1,.16-.16h1a.15.15,0,0,1,.16.16V150a.15.15,0,0,1-.16.16h-1A.16.16,0,0,1,70,150Zm1.63,0a.15.15,0,0,1,.16-.16h1a.16.16,0,0,1,.16.16V150a.15.15,0,0,1-.16.16h-1a.15.15,0,0,1-.16-.16Zm1.82.86a.11.11,0,0,1,.09.1V151a.1.1,0,0,1-.09.1H72.37a.1.1,0,0,1-.09-.1v-.25s0-.1.09-.1Zm-.16-.89a.15.15,0,0,1,.16-.16h1a.16.16,0,0,1,.16.16v.16a.15.15,0,0,1-.16.16h-1a.15.15,0,0,1-.16-.16ZM84.72,152s-.1,0-.1-.09v-.48a.11.11,0,0,1,.1-.1h1a.11.11,0,0,1,.09.1v.48a.1.1,0,0,1-.09.09Zm-1.41,2.52a.11.11,0,0,1,.1-.09h1.28a.1.1,0,0,1,.09.09V155s0,.1-.09.1H83.41a.12.12,0,0,1-.1-.1Zm-.92-.6a.11.11,0,0,1-.1-.1v-.6a.1.1,0,0,1,.1-.1h1a.1.1,0,0,1,.09.1v.6s0,.1-.09.1ZM81.88,155s-.1,0-.1-.09v-.51a.11.11,0,0,1,.1-.1h1.18a.1.1,0,0,1,.09.1V155s0,.1-.09.1H81.88Zm-.48,1s-.1,0-.1-.09v-.54a.11.11,0,0,1,.1-.1h1.08a.1.1,0,0,1,.1.1v.54a.1.1,0,0,1-.1.09Zm-1.34,0s-.1,0-.1-.09v-.51a.11.11,0,0,1,.1-.1h1a.1.1,0,0,1,.09.1v.54a.1.1,0,0,1-.09.09h-1Zm-1.66,0a.1.1,0,0,1-.09-.09v-.61a.1.1,0,0,1,.09-.09h1.34s.1,0,.1.09v.61a.11.11,0,0,1-.1.09Zm-1.08,1.31a.1.1,0,0,1,.09-.09h1.44a.1.1,0,0,1,.09.09v.51s0,.1-.09.1H77.41a.1.1,0,0,1-.09-.1Zm1.37-1.12a.11.11,0,0,1,.09.1v.51s0,.1-.09.1H77.51a.12.12,0,0,1-.1-.1v-.51a.11.11,0,0,1,.1-.1Zm-2-.89a.1.1,0,0,1,.09-.09h1.31s.1,0,.1.09v.51a.11.11,0,0,1-.1.1H76.77a.1.1,0,0,1-.09-.1Zm-.16-1a.1.1,0,0,1,.09-.09h.64s.1,0,.1.09v.51a.1.1,0,0,1-.1.1h-.64a.1.1,0,0,1-.09-.1Zm1.31-2.55a.11.11,0,0,1-.1.1h-1a.11.11,0,0,1-.1-.1v-.41a.12.12,0,0,1,.1-.1h1a.11.11,0,0,1,.1.1Zm.67.29a.1.1,0,0,1,.09.1v.67a.1.1,0,0,1-.09.09H77.32a.1.1,0,0,1-.1-.09v-.67a.1.1,0,0,1,.1-.1Zm1-.29a.11.11,0,0,1-.1.1H78.31a.1.1,0,0,1-.1-.1v-.41a.11.11,0,0,1,.1-.1h1.14a.1.1,0,0,1,.1.1Zm.54.45s.1,0,.1.09v.45a.11.11,0,0,1-.1.1H78.91a.1.1,0,0,1-.09-.1v-.45a.1.1,0,0,1,.09-.09Zm1.09-.35a.11.11,0,0,1-.1.09H79.93a.1.1,0,0,1-.09-.09v-.58a.1.1,0,0,1,.09-.09h1.15s.1,0,.1.09Zm.48.32a.1.1,0,0,1,.09.09v.45s0,.1-.09.1H80.54a.12.12,0,0,1-.1-.1v-.45a.1.1,0,0,1,.1-.09Zm.76-.32a.1.1,0,0,1-.1.09h-.79s-.1,0-.1-.09v-.54a.1.1,0,0,1,.1-.1h.79a.1.1,0,0,1,.1.1Zm-1.37,2a.11.11,0,0,1-.1-.1v-.6a.12.12,0,0,1,.1-.1h1a.1.1,0,0,1,.09.1v.6a.1.1,0,0,1-.09.1Zm-.67.38a.1.1,0,0,1,.09-.09h1s.1,0,.1.09v.54a.1.1,0,0,1-.1.1h-1a.1.1,0,0,1-.09-.1Zm-.73-.41a.1.1,0,0,1-.1-.1v-.51a.1.1,0,0,1,.1-.09h.95s.1,0,.1.09v.51a.11.11,0,0,1-.1.1Zm-.64.51s0-.1.09-.1h1a.11.11,0,0,1,.1.1V155a.12.12,0,0,1-.1.1h-1A.11.11,0,0,1,79,155Zm-.74-.48a.1.1,0,0,1-.09-.1v-.51a.1.1,0,0,1,.09-.09h1.09a.1.1,0,0,1,.09.09v.51a.1.1,0,0,1-.09.1Zm-1.53,0a.1.1,0,0,1-.09-.1v-.51a.1.1,0,0,1,.09-.09h1.18s.1,0,.1.09v.51a.11.11,0,0,1-.1.1Zm.8.35a.11.11,0,0,1,.1-.1h1.11a.11.11,0,0,1,.1.1V155a.11.11,0,0,1-.1.1H77.64a.1.1,0,0,1-.1-.1Zm5.68-2.07a.1.1,0,0,1,.09.09v.48s0,.1-.09.1H82.13a.11.11,0,0,1-.09-.1v-.48a.1.1,0,0,1,.09-.09Zm.48,1h1a.11.11,0,0,1,.1.1v.61a.1.1,0,0,1-.1.09h-1a.1.1,0,0,1-.1-.09v-.61a.09.09,0,0,1,.1-.1M83,152a.11.11,0,0,1-.09-.1v-.54s0-.1.09-.1h1.37a.1.1,0,0,1,.1.1v.54a.11.11,0,0,1-.1.1Zm-7.4.86a.1.1,0,0,1-.09-.1v-.54s0-.1.09-.1h1.18a.12.12,0,0,1,.1.1v.54a.11.11,0,0,1-.1.1Zm.23,2.36.51,0a.06.06,0,0,1,.06.06l0,.57a.07.07,0,0,1-.06.07h-.54a.07.07,0,0,1-.07-.07l0-.51c0-.06.06-.09.1-.09m-.16-.26a.1.1,0,0,1-.1-.09l0-.58a.1.1,0,0,1,.09-.09l.58,0a.11.11,0,0,1,.09.1l0,.61a.11.11,0,0,1-.1.09Zm-1.34,2.87,0-.12.13-.13s.19,0,.22,0a.49.49,0,0,0,.19-.07s.19,0,.29-.09a1.52,1.52,0,0,1,.35-.07s.06.13.06.13.1.29.07.35a.49.49,0,0,1,0,.16s-.19.1-.22.1-.25.09-.29.09l-.44.1a.94.94,0,0,1-.29,0c-.06,0-.1-.16-.1-.16v-.26Zm-1.12-.92.38,0,.51-.07.48-.09v.63l-.41.16-.45.07-.54-.07-.07-.54Zm-.35-.42,0-.51h.32l.41,0,.64-.16.13.54-.42.16-.54,0Zm-1.34.71s1.18-.2,1.34-.26.09.7.09.7a1.9,1.9,0,0,1-.7.19c-.32,0-.73,0-.73-.06v-.57m-1.66-1.41v-.7A4,4,0,0,0,71.1,155l.06.8a2.48,2.48,0,0,1-1.34.06m-1.82,0v-.73a12.81,12.81,0,0,0,1.56,0l0,.73a3.89,3.89,0,0,1-1.53,0m-.6,1.47,1.27,0-.06.64-1.21,0Zm-.07-1h1.25v.6H67.33Zm-.86-.58,0-.76,1.21.16,0,.76Zm-.25,1.41.15.06.39,0h.38v.51l-.19.07h-.48l-.29-.13Zm-.32-.39,0-.7a5,5,0,0,0,1.18.1v.67a2.82,2.82,0,0,1-1.14-.07m-.83.19.48.1.47,0-.06.54h-.19l-.42,0-.35-.13Zm-.42-.51.07-.63.89.12,0,.67h-.39l-.54-.16M64,155.31l.58.35-.07.61-.6-.26Zm.8-.8-.06.71-.8-.2.16-.73Zm-.06-1.21v.64l-.67.1.06-.9Zm.28,1,0-.77,1.08.13v.86Zm.07.32,1.18.25-.07.74L65,155.25Zm3.09-.77v.8l-1.75-.13.09-.8Zm1.31.8h-1v-.77h1Zm1.4-.8v.74l-1.08,0v-.7Zm3.77-1.72a.11.11,0,0,1-.1.1h-.83a.11.11,0,0,1-.09-.1v-.35s0-.1.09-.1h.83a.11.11,0,0,1,.1.1Zm.32,1,.12.7c0,.19-.44.16-.44.16v-.67Zm-.16,3.57s.19,0,.19-.06l.22-.16h.13l0,.32,0,.25-.12.1a1.85,1.85,0,0,1-.23.09s-.22.07-.22.07l-.16,0,0-.55Zm-.1-2.1c.13,0,.42-.26.42-.26l0,.8a.88.88,0,0,1-.42.19Zm-.32,1.27.58-.22.35-.16,0,.54a2.52,2.52,0,0,1-.29.16l-.38.13-.29,0-.06-.45Zm-.7-2.33.8-.22V154l-.77.15Zm-.51,1.31a5.39,5.39,0,0,0,1.34-.25l.06.67a4.61,4.61,0,0,1-1.4.28Zm-.54-.45v-.73l.79-.16v.77Zm-1.53.07,0-.67,1.15-.07v.77H71.1Zm1.62,2.1-.12.1-.32,0h-.55l-.06-.48.48-.06.51-.13Zm-1.3-.76,0-.77a11.39,11.39,0,0,0,1.44-.25l0,.79a4.34,4.34,0,0,1-1.43.23m4.11-2.55h.73a.1.1,0,0,1,.1.09l0,.58a.1.1,0,0,1-.1.09h-.7s-.1,0-.1-.09l0-.58c.07,0,.1-.09.13-.09M75,152a.1.1,0,0,1-.1-.09v-.54a.1.1,0,0,1,.1-.1h1.18a.1.1,0,0,1,.09.1v.54a.1.1,0,0,1-.09.09Zm-2.75.07v-.19a.1.1,0,0,1,.1-.1h.83a.1.1,0,0,1,.09.1v.19a.1.1,0,0,1-.09.09h-.83c-.07,0-.1-.06-.1-.09m-.32-.19v.25s0,.1-.09.1h-1a.1.1,0,0,1-.1-.1v-.25a.1.1,0,0,1,.1-.1h1c.06,0,.09.06.09.1m-.06-.71H70.71a.1.1,0,0,1-.09-.09v-.26a.1.1,0,0,1,.09-.09h1.12s.1,0,.1.09v.26c0,.06-.07.09-.1.09M69,151.07v-.26a.1.1,0,0,1,.1-.09h1.11a.1.1,0,0,1,.1.09v.26a.1.1,0,0,1-.1.09H69.12s-.1,0-.1-.09m.07.8h1a.1.1,0,0,1,.09.09v.26a.1.1,0,0,1-.09.09h-1a.1.1,0,0,1-.1-.09V152c0-.06,0-.09.1-.09m1.14,1c2.27-.1,4.44-.35,4.44-.35a7.34,7.34,0,0,1-3.7.89c-2.55.1-7.56-.41-6.64-.8a56.39,56.39,0,0,0,5.9.26M67.36,151v-.12a.15.15,0,0,1,.16-.16h1a.15.15,0,0,1,.16.16V151a.15.15,0,0,1-.16.16h-1a.15.15,0,0,1-.16-.16m1,.9s.1,0,.1.09v.35a.11.11,0,0,1-.1.1H67a.1.1,0,0,1-.09-.1V152a.1.1,0,0,1,.09-.09Zm-3.92,5.93a1.57,1.57,0,0,0,0,.16s0,0,0,.06a.2.2,0,0,1-.16.07l-.12,0-.32-.13a.28.28,0,0,1-.1-.26,2,2,0,0,0,0-.32l.07-.06.22.1.19.06.19.06.07.1v.19m-.19-.57-.48-.19.09-.58,1.12.29a3.24,3.24,0,0,1,0,.54,1.14,1.14,0,0,1-.32,0Zm5.77,0,0,.64-1,0v-.57Zm-.06-.35-.07,0-.22,0h-.35l-.42-.16v-.51l.51,0,.58,0Zm1.4.28,0,.71-1,0,0-.67Zm-.48-.32-.67,0v-.54l.58,0,.76-.13,0,.61Zm9.48.45v.51a.12.12,0,0,1-.1.1H79.13a.1.1,0,0,1-.09-.1v-.51a.1.1,0,0,1,.09-.09h1.09c.06,0,.1,0,.1.09m-.07-.48H79.07a.1.1,0,0,1-.09-.09v-.39a.1.1,0,0,1,.09-.09h1.18s.1,0,.1.09v.39c0,.06-.07.09-.1.09m1.47.48v.45a.1.1,0,0,1-.1.09H80.57s-.1,0-.1-.09v-.45a.11.11,0,0,1,.1-.09h1.05c.07,0,.1.06.1.09m1.24-.06s.1,0,.1.09v.45a.11.11,0,0,1-.1.1h-1a.12.12,0,0,1-.1-.1v-.45a.11.11,0,0,1,.1-.09Zm-1-.45s0,.1-.09.1H80.54a.12.12,0,0,1-.1-.1v-.48a.1.1,0,0,1,.1-.09h1.31a.1.1,0,0,1,.09.09Zm3.93-3.67a.1.1,0,0,1,.09.1V154a.1.1,0,0,1-.09.1h-.74A.1.1,0,0,1,85,154v-.76s0-.1.09-.1Zm-.74-.38s0,.1-.09.1H83.7a.11.11,0,0,1-.1-.1v-.35a.11.11,0,0,1,.1-.1H85a.1.1,0,0,1,.09.1Zm.7-2.3a.1.1,0,0,1,.1.1V151a.1.1,0,0,1-.1.1H74.16a.11.11,0,0,1-.1-.1v-.44a.11.11,0,0,1,.1-.1Zm-10.55-.28-.2-.58-.63-.29-1.22-.06-5.83.06-.71.07s-.38.29-.35.41-.19.51-.19.51l-.32.29-.51.29s0,.41-.06.44-.64.16-.77.2-5.26.09-5.26.09l-9,.32s1.24,5,3.76,7.94l1.08-.09.58,0,.76,0H57.6l2.11,0a12.44,12.44,0,0,0,1.59,0c.1-.06.23,0,.42-.09a2.89,2.89,0,0,1,.57-.1l.67.07s.54.22.61.12.06-.22.22-.22a2.34,2.34,0,0,1,.67.26,13.3,13.3,0,0,0,2.81.6,22,22,0,0,0,3.7.19c.83,0,2.71-.25,3.19-.25a5.67,5.67,0,0,0,1.4-.16,6.54,6.54,0,0,0,.7-.29c.13-.06.2-.09.23-.16s-.16-.16-.13-.22a.93.93,0,0,1,.22-.29,2.34,2.34,0,0,1,.45-.29c.22-.06-.06,0,.38,0a6.75,6.75,0,0,1,1,.06c.22.06,3.44,0,3.44,0h1.28l.86,0a.55.55,0,0,0,.38,0c.13-.07,3-4.53,3.32-8v-.54Z"/><path class="cls-1" d="M73.52,148.1s0,.07-.06.07h-.74s-.06,0-.06-.07v-.29a.06.06,0,0,1,.06-.06h.74a.06.06,0,0,1,.06.06Zm0,.8a.07.07,0,0,1-.07.06h-.73a.06.06,0,0,1-.06-.06v-.35s0-.07.06-.07h.73a.08.08,0,0,1,.07.07Zm-1,0a.08.08,0,0,1-.07.07h-.79a.08.08,0,0,1-.07-.07v-.35a.07.07,0,0,1,.07-.06h.79a.07.07,0,0,1,.07.06Zm-1.09,0s0,.07-.06.07h-.8s-.06,0-.06-.07v-.29a.06.06,0,0,1,.06-.06h.8a.06.06,0,0,1,.06.06Zm-1.11-.7s0,.06-.07.06h-.73a.06.06,0,0,1-.06-.06v-.29a.06.06,0,0,1,.06-.06h.73s.07,0,.07.06Zm0,.7a.08.08,0,0,1-.07.07h-.73s-.06,0-.06-.07v-.29a.06.06,0,0,1,.06-.06h.73s.07,0,.07.06Zm1-1v.29a.06.06,0,0,1-.06.06h-.74a.06.06,0,0,1-.06-.06v-.29a.06.06,0,0,1,.06-.06h.74a.06.06,0,0,1,.06.06m1.08,0v.29a.06.06,0,0,1-.06.06h-.73a.07.07,0,0,1-.07-.06v-.29a.07.07,0,0,1,.07-.06h.73a.06.06,0,0,1,.06.06M70,147.37c.06,0,.22-.07.35-.1h1.09l.92,0h0l.26,0a.34.34,0,0,0,.19,0c.06,0,.06,0,.09,0s.1,0,.16.06a.44.44,0,0,0,.2,0,.11.11,0,0,1,.09,0s0,0,0,.1-.12,0-.12,0l-3.61,0c0,.09.29-.13.32-.16m4.43.8c-.12-.1-.12-.1-.16-.1a.53.53,0,0,1-.31,0c-.1,0-.2-.19-.2-.19l-.12-.29a1.17,1.17,0,0,1-.07-.29h-.19a2,2,0,0,0-.35-.12h-.22c-.07,0-.16-.1-.23-.13a1.58,1.58,0,0,0-.38,0,1.35,1.35,0,0,1-.38,0,5,5,0,0,0-.67,0,4.09,4.09,0,0,0-.58.09,2.15,2.15,0,0,1-.44,0,3.27,3.27,0,0,0-.58.23.41.41,0,0,0-.16.16c0,.06-.16.09-.25.22s0,.16,0,.29,0,.06,0,.16-.13.35-.19.51a2.63,2.63,0,0,0,0,.7h5.49c.19,0,.48-.7.48-.7s-.29-.42-.42-.51"/><path class="cls-1" d="M64.68,144.56v-.09l-.09-.07a1.57,1.57,0,0,1,0-.16s-.13-.16-.13-.16-.1-.09-.13-.09-.06-.07-.06-.07a0,0,0,0,1,0-.06c0-.06,0-.19,0-.22s-.07-.07-.1-.13-.19-.16-.22-.19a.38.38,0,0,0-.19,0c-.07,0-.07,0,0,.06s.16.06.19.09,0,.16,0,.29-.1.1-.1.1a.62.62,0,0,1-.16,0,.17.17,0,0,0-.09-.16v-.07h0s0,0,0,0a.07.07,0,0,0-.07-.06v-.29h0l0,.29a.06.06,0,0,0-.06.06s0,0,.06,0v.07s-.1.06-.1.12h-.12c0-.06,0-.09-.1-.12v-.07h0s0,0,0,0a.06.06,0,0,0-.06-.06v-.29h0l0,.29a.07.07,0,0,0-.07.06s0,0,.07,0v.07s-.07.06-.1.09h0s0-.09-.1-.09v-.07h0s.07,0,.07,0,0-.06-.07-.06v-.29h0l0,.29s-.07,0-.07.06,0,0,.07,0v.07a.18.18,0,0,0-.1.06s0-.06-.06-.06v-.07h0s0,0,.06,0a.06.06,0,0,0-.06-.06v-.29h0l0,.29a.07.07,0,0,0-.07.06s0,0,.07,0v.07a.07.07,0,0,0-.07.06h-.09c0-.06-.07-.13-.1-.16v-.06h0s.06,0,.06,0a.06.06,0,0,0-.06-.06v-.29h0l0,.29a.07.07,0,0,0-.07.06s0,0,0,0v.06s-.09.06-.09.13H62c0-.07-.06-.1-.09-.13v-.06h0s0,0,0,0a.06.06,0,0,0-.06-.06v-.29h0l0,.29a.06.06,0,0,0-.06.06s0,0,.06,0v.06s-.06.06-.09.1h-.07c0-.07,0-.13-.09-.13v-.07h0s0,0,.06,0a.06.06,0,0,0-.06-.06v-.29h0l0,.29a.06.06,0,0,0-.06.06s0,0,.06,0v.07s-.09.06-.09.13,0,0-.1-.07a.29.29,0,0,1,0-.16c0-.06,0-.16,0-.19s.07,0,.07-.06,0,0,0-.07-.19.13-.25.23a.74.74,0,0,0-.16.32c0,.09-.16.09-.16.09a.69.69,0,0,0-.35.83l0,.06-.13,0s0,.16,0,.16a.4.4,0,0,0,.13,0l-.06.13,1.11.31v.07h.77v-.07l2.39-.09-.06-.13.09,0v-.19l-.09-.07v-.25Z"/><polygon class="cls-1" points="52.05 161.6 52.79 162.84 51.99 164.21 53.42 163.48 54.7 164.21 54 162.9 54.8 161.69 53.39 162.46 52.05 161.6"/><polygon class="cls-1" points="83.03 161.37 83.76 162.62 82.96 163.99 84.43 163.25 85.71 163.99 85 162.68 85.8 161.47 84.4 162.23 83.03 161.37"/><path class="cls-1" d="M77.89,167.27a3.7,3.7,0,0,0-1-.41,5.45,5.45,0,0,0-1.05-.16,4.12,4.12,0,0,0-1,.06l1,.19a9.57,9.57,0,0,1,1,.23l.25.06a2.5,2.5,0,0,1,.26.07l.25.09.23.1a3.11,3.11,0,0,1,.86.54,2,2,0,0,0-.77-.77"/><path class="cls-1" d="M78.43,166.89a2.58,2.58,0,0,0-.79-.32,4.43,4.43,0,0,0-.83-.13,5.5,5.5,0,0,0-.83,0l.83.16a4.8,4.8,0,0,1,.79.19.51.51,0,0,1,.2.06c.06,0,.12,0,.19.06l.19.07a.47.47,0,0,0,.19.06,5.4,5.4,0,0,1,.7.42,1.87,1.87,0,0,0-.64-.61"/><path class="cls-1" d="M78.85,166.51a2.58,2.58,0,0,0-1.41-.38,6,6,0,0,0-.73,0l.7.12c.23,0,.45.1.7.16a.91.91,0,0,1,.16,0,.46.46,0,0,1,.16.06l.16.06.16.07a2.15,2.15,0,0,1,.61.38,1.48,1.48,0,0,0-.51-.54"/><path class="cls-1" d="M79.36,166.16a2.92,2.92,0,0,0-.54-.23,4.09,4.09,0,0,0-.58-.09,3.63,3.63,0,0,0-.57,0l.54.1a3.49,3.49,0,0,1,.54.12l.13,0,.13,0,.12,0s.1,0,.13.06a2,2,0,0,1,.48.29,1,1,0,0,0-.38-.38"/><path class="cls-1" d="M79.77,165.81a1.46,1.46,0,0,0-.44-.19,2,2,0,0,0-.48-.07,2.58,2.58,0,0,0-.48,0l.48.1.44.09s.07,0,.1,0,.06,0,.1,0l.09,0,.1,0a1.17,1.17,0,0,1,.38.26.59.59,0,0,0-.29-.35"/><path class="cls-1" d="M80.32,165.49a1.41,1.41,0,0,0-.42-.16,2.07,2.07,0,0,0-.41-.07,1.5,1.5,0,0,0-.42,0l.42.06.41.1s.06,0,.1,0l.09,0,.1,0,.09,0a1.25,1.25,0,0,1,.35.23,1.35,1.35,0,0,0-.31-.32"/><path class="cls-1" d="M59.39,167.27a3.7,3.7,0,0,1,1-.41,5.45,5.45,0,0,1,1-.16,4.12,4.12,0,0,1,1,.06l-1,.19a9.57,9.57,0,0,0-1,.23l-.25.06a2.5,2.5,0,0,0-.26.07l-.25.09-.23.1a3.11,3.11,0,0,0-.86.54,2,2,0,0,1,.77-.77"/><path class="cls-1" d="M58.85,166.89a2.58,2.58,0,0,1,.79-.32,4.08,4.08,0,0,1,.83-.13,5.5,5.5,0,0,1,.83,0l-.83.16a4.8,4.8,0,0,0-.79.19.51.51,0,0,0-.2.06c-.06,0-.12,0-.19.06l-.19.07a.47.47,0,0,1-.19.06,5.4,5.4,0,0,0-.7.42,1.87,1.87,0,0,1,.64-.61"/><path class="cls-1" d="M58.46,166.51a2.58,2.58,0,0,1,1.41-.38,5.94,5.94,0,0,1,.73,0l-.7.12c-.22,0-.48.1-.7.16a.91.91,0,0,0-.16,0l-.16.06-.16.06a1.11,1.11,0,0,1-.16.07,2.3,2.3,0,0,0-.61.38,1.12,1.12,0,0,1,.51-.54"/><path class="cls-1" d="M58,166.16a2.75,2.75,0,0,1,.55-.23,3.75,3.75,0,0,1,.57-.09,3.63,3.63,0,0,1,.57,0l-.54.1a3.49,3.49,0,0,0-.54.12l-.13,0-.13,0-.12,0s-.1,0-.13.06a2,2,0,0,0-.48.29.82.82,0,0,1,.38-.38"/><path class="cls-1" d="M57.54,165.81a1.65,1.65,0,0,1,.45-.19,1.84,1.84,0,0,1,.47-.07,2.58,2.58,0,0,1,.48,0l-.48.1-.44.09s-.07,0-.1,0l-.09,0-.1,0-.1,0a1.17,1.17,0,0,0-.38.26c0-.16.13-.26.29-.35"/><path class="cls-1" d="M57,165.49a1.25,1.25,0,0,1,.41-.16,2,2,0,0,1,.42-.07,1.46,1.46,0,0,1,.41,0l-.41.06-.42.1-.09,0s-.07,0-.1,0l-.1,0-.09,0a1.25,1.25,0,0,0-.35.23.89.89,0,0,1,.32-.32"/><path class="cls-1" d="M55,159.59s-.06.54.23.54,3-.16,3.19-.07.6.16.57.26a9,9,0,0,1-2.61.19c-.67-.09-.55.13-.35.26a3,3,0,0,1,.41.47s0,.1-.16.16-.16.29.06.45.67.42.67.42l.32.19h.58s.41.19.09.19-.28,0-.22.13.32.47.32.47l1.63,1.28-3.19-2L55,161.05l-1-1.11-.13-.35Z"/><path class="cls-1" d="M61.46,159.49l2.08,2.39a0,0,0,0,0,0,0L62,159.36Z"/><path class="cls-1" d="M56.42,161.34l.23.13,4.59.16,1.08.09.55.1.22.09L63,162h-.41l-.83-.06-1.28-.07-2.33-.15a10.2,10.2,0,0,0-1.11,0c-.1,0-.29,0-.35-.07a.77.77,0,0,1-.13-.16l-.22-.16Z"/><path class="cls-1" d="M60.89,162.71s1-.32,1.15-.32a.55.55,0,0,1,.32.07c.09.06.28,0,.09.06a1.36,1.36,0,0,0-.32.19s-.09.07,0,.07h.23s.13,0,0,.12-.07.19-.29.23a1.63,1.63,0,0,1-.54,0c-.19,0-.38-.1-.38-.1a.86.86,0,0,0-.2-.13,1,1,0,0,1-.19-.12Z"/><path class="cls-1" d="M64.72,160.73a4.71,4.71,0,0,0,1.72.71c.7,0,.7.09.67.12a.65.65,0,0,1-.29.23c-.13,0-1,.19-1.21,0s-.67-.39-.7-.48-.19-.29-.19-.32-.2-.26,0-.26"/><path class="cls-1" d="M62.58,164a3.72,3.72,0,0,1,.45-.13,1.2,1.2,0,0,1,.31,0l.45,0s.32,0,.35,0a.81.81,0,0,0,.32.09l.35,0c.07,0,.45.1.51.1a2.84,2.84,0,0,1,.51.06,1,1,0,0,1,.32.07l.13.13-.19.09a1.94,1.94,0,0,1-.42,0,3,3,0,0,0-.6-.13c-.13,0-.67-.09-.74-.09s-.25-.1-.35-.07a2.42,2.42,0,0,1-.54,0s-.26,0-.32,0a2.18,2.18,0,0,1-.22.06c-.1,0-.19.06-.29,0s-.22,0-.16-.09a1.31,1.31,0,0,1,.13-.16"/><path class="cls-1" d="M63,164.37l.22,0a1.93,1.93,0,0,1,.42,0s.22,0,.22,0,.13.19.16.19.1,0,.07.07-.07.09-.1.09h-.19l-.19-.06-.29,0-.22,0-.23,0s0-.1,0-.13a.41.41,0,0,1,.09-.16"/><path class="cls-1" d="M63,165.07l.26,0,.19.06.09,0s0,.12-.09.12a1.36,1.36,0,0,1-.42.1,1,1,0,0,1-.28-.06l.06-.1Z"/><path class="cls-1" d="M70.11,163.73h1.46l.48,0c.07,0,.26,0,.26.07s0,.06-.07.09a4.34,4.34,0,0,1-1.11.2l-.93,0c-.16,0-.79.07-1,0a6.63,6.63,0,0,0-.83-.07,1.33,1.33,0,0,1-.35,0s-.12-.06-.12-.09.06-.13.09-.13.19,0,.29,0h1a.86.86,0,0,0,.41,0,2.93,2.93,0,0,1,.42,0"/><path class="cls-1" d="M69.12,164.28a1.88,1.88,0,0,0,.32.06,1.38,1.38,0,0,1,.28.06s.1.1,0,.13-.23,0-.29.06a1.48,1.48,0,0,1-.42,0,1.62,1.62,0,0,1-.44,0,1.63,1.63,0,0,0-.42-.09s-.22,0-.19-.07,0,0,.13,0a.78.78,0,0,1,.35-.06,3.24,3.24,0,0,1,.64-.06"/><path class="cls-1" d="M83.31,158.79l-.54.57a4.69,4.69,0,0,0-.67,0,6.4,6.4,0,0,1-.76,0,1.67,1.67,0,0,1-.39,0,1.86,1.86,0,0,0-.41,0,2.28,2.28,0,0,0-.32.16s-.13.07.1.1.35,0,.54,0a3.24,3.24,0,0,0,.54,0c.13,0,.38.06.48.09a2,2,0,0,0,.51.07h.19l-1.4,1.78a1.08,1.08,0,0,1-.8,0,7.4,7.4,0,0,0-1.25-.28,6.46,6.46,0,0,0-.7-.07c-.12,0-.35,0-.41.13a1.31,1.31,0,0,1-.58.13,1.56,1.56,0,0,0-.7-.13c-.41,0-.95.06-1.24.1a4.54,4.54,0,0,0-.83.19s-.19.06-.13.16-.16.09.13.12a4.59,4.59,0,0,0,1.66,0,3.51,3.51,0,0,1,.76-.15H78a1.55,1.55,0,0,1,.52.15s.35.07,0,.23-.51.38-.74.35-1,0-1.4,0H75.05c-.29,0-1.08,0-1.24.06s-.58,0-.77.07-.8.09-.83.12-.32.07-.28.2,0,.19.28.22a2.32,2.32,0,0,0,.8.06,3.79,3.79,0,0,1,.86-.09,8.19,8.19,0,0,1,1.21-.07,15.78,15.78,0,0,1,2,.1c.41.16.86.19,1.08.29s.36-.1.48-.16.61-.35.64-.26-.13.45-.13.45l-.44.41-.35.45L80.73,163l2.11-2.2,1.65-2.14-.25-.13Z"/><path class="cls-1" d="M68.8,164.85l.45.06.41,0H70c.06,0,.16,0,.1,0a2,2,0,0,1-.2.16c-.06,0-.19,0-.38,0H69c-.16,0-.22,0-.35,0s-.48,0-.51,0-.13,0-.1,0a.39.39,0,0,1,.26-.09h.22l.29-.13"/><path class="cls-1" d="M82.52,160.16s-1.6.22-2.08.26-.6,0-1,0a8,8,0,0,0-1,0c-.25,0-.41.06-.19.12s.41-.06.54,0a15.75,15.75,0,0,0,1.82,0c.26,0,.29-.12.67-.06a6.51,6.51,0,0,1,.77.09,2.41,2.41,0,0,0,.54,0c.06-.06,0-.41,0-.41"/><path class="cls-1" d="M77.51,158.82s-.13.19-.16.19-.1.16-.16.26-.1.12-.06.16,0,.12.09.12.16,0,.22-.06l.2-.16a.68.68,0,0,1,.16-.16l.28-.19s-.09,0,0-.1l.23-.09h-.83Z"/><path class="cls-1" d="M63.57,159.46a5.55,5.55,0,0,0,1.85.8c.86.12,3,.47,3.28.47l3.32-.09a27.91,27.91,0,0,0,2.84-.29c1-.19,1-.22,1.24-.25s.39-.13.48-.13.32,0,.32,0a.3.3,0,0,1-.09.22,3.79,3.79,0,0,1-1,.39,19.63,19.63,0,0,1-3.54.63,35.46,35.46,0,0,1-4.92.07,7.2,7.2,0,0,1-3.22-1,5,5,0,0,0-.76-.7l.09-.13Z"/><path class="cls-1" d="M69.37,166.13H68.8a17,17,0,0,0-3.22.44c.67.13,1.37.19,2.07.26.38,0,.67-.07.86-.1h0a7.7,7.7,0,0,1,1.18,0H70c.13,0,.25,0,.41,0,.7-.06,1.37-.16,2-.28a14.22,14.22,0,0,0-3-.35m18.86,8.45s0,.06-.07.06c-.79.23-3.79.83-9-1.31a46.59,46.59,0,0,0-4.66-1.62l-1.12-.29a21.42,21.42,0,0,0-3.73-.57h0a11.49,11.49,0,0,0-1.18,0h0a17.42,17.42,0,0,0-4,.6l-1.11.29A37.79,37.79,0,0,0,59,173.3c-5.2,2.14-8.19,1.53-9,1.31,0,0-.07,0-.07-.06v-3.86s0,0,0-.07l0,0h0a19.32,19.32,0,0,0,7.69-1c.22-.06.44-.16.7-.22a6.93,6.93,0,0,0,.67-.25,42.48,42.48,0,0,1,6.7-2c.76-.16,1.37-.25,1.85-.31l.86-.1h0a7.69,7.69,0,0,1,1.18,0h.25c.13,0,.26,0,.42,0,.45.07,1,.13,1.82.29a41.92,41.92,0,0,1,6.92,2.1c.13.07.25.1.38.16a6.66,6.66,0,0,0,.67.23,19.28,19.28,0,0,0,8,1.05h0s0,0,0,0a.11.11,0,0,1,0,.07v3.92Zm.38-4.37a.59.59,0,0,0-.51-.16,19,19,0,0,1-7.21-.86,5.9,5.9,0,0,1-.67-.23c-.29-.09-.61-.22-.93-.31a44.4,44.4,0,0,0-5.71-1.82c-.41-.1-.83-.19-1.18-.29a15.69,15.69,0,0,0-3-.41H68.8a17,17,0,0,0-3.22.44c-.35.1-.77.16-1.21.29a49.65,49.65,0,0,0-5.49,1.79c-.42.16-.83.28-1.21.41s-.48.16-.71.22a18.52,18.52,0,0,1-6.89.77.59.59,0,0,0-.51.16.79.79,0,0,0-.22.51v3.86a.65.65,0,0,0,.48.64,8.71,8.71,0,0,0,2.26.28,18.91,18.91,0,0,0,7.12-1.59,40.06,40.06,0,0,1,5.55-1.85l1.5-.32a13.23,13.23,0,0,1,2.52-.26h.64a12.67,12.67,0,0,1,2.32.23,10.74,10.74,0,0,1,1.5.32A37.41,37.41,0,0,1,79,173.91a18.83,18.83,0,0,0,7.11,1.59,7.47,7.47,0,0,0,2.26-.28.68.68,0,0,0,.48-.64v-3.89a.68.68,0,0,0-.22-.48m-19.24-4.08H68.8a17,17,0,0,0-3.22.44c.67.13,1.37.19,2.07.26.38,0,.67-.07.86-.1h0a7.7,7.7,0,0,1,1.18,0H70c.13,0,.25,0,.41,0,.7-.06,1.37-.16,2-.28a14.22,14.22,0,0,0-3-.35m0,0H68.8a17,17,0,0,0-3.22.44c.67.13,1.37.19,2.07.26.38,0,.67-.07.86-.1h0a7.7,7.7,0,0,1,1.18,0H70c.13,0,.25,0,.41,0,.7-.06,1.37-.16,2-.28a14.22,14.22,0,0,0-3-.35"/><path class="cls-1" d="M88.93,173.24l-.1-2.65a.23.23,0,0,0-.09-.19l-.29-.29a.29.29,0,0,0-.22-.09h-.1A10.63,10.63,0,0,1,85.74,169c-.1-.06,0-.09.09-.15,1.63.09,4.73.09,6.83-1.25a10,10,0,0,1-1.72,2.65.27.27,0,0,0-.1.22.29.29,0,0,0,.1.23l2,1.85a11.26,11.26,0,0,1-4,.73m4.75-.83-2.14-2a11.89,11.89,0,0,0,2.11-3.7.3.3,0,0,0-.13-.35.35.35,0,0,0-.38,0c-2.43,2.52-8.23,1.73-8.29,1.73a.25.25,0,0,0-.29.12.27.27,0,0,0,0,.32,2.13,2.13,0,0,1-.13,1.56.33.33,0,0,0,0,.29.36.36,0,0,0,.26.16l1.85.13h0l1.56-.06.1.09.09,2.81a.29.29,0,0,0,.29.29,4.57,4.57,0,0,0,.64,0,12.69,12.69,0,0,0,4.37-.93.23.23,0,0,0,.16-.22c0-.16,0-.26-.13-.32"/><path class="cls-1" d="M45.13,172.47l2-1.85a.31.31,0,0,0,0-.44,9.07,9.07,0,0,1-1.72-2.65c2.1,1.31,5.2,1.34,6.82,1.24.1,0,.16.1.07.16a10.78,10.78,0,0,1-2.4,1.06l-.09,0a.78.78,0,0,0-.32.16l-.19.16a.24.24,0,0,0-.1.19l-.09,2.65a11.74,11.74,0,0,1-4-.71m-.86.16a.34.34,0,0,0,.19.23,12.58,12.58,0,0,0,4.37.92,4.64,4.64,0,0,0,.64,0c.16,0,.25-.13.29-.29l.09-2.8.1-.1,1.56.06h0l1.85-.12a.24.24,0,0,0,.22-.16.31.31,0,0,0,0-.29,2.09,2.09,0,0,1-.13-1.56.31.31,0,0,0,0-.32.27.27,0,0,0-.29-.13c-.06,0-5.87.8-8.29-1.72a.34.34,0,0,0-.38-.07.31.31,0,0,0-.13.35,11.34,11.34,0,0,0,2.1,3.7l-2.13,2a.53.53,0,0,0-.13.35"/><path class="cls-1" d="M51.8,173.27l0,0-.06,0,0,0a.38.38,0,0,0,.16-.41.51.51,0,0,0-.22-.42.68.68,0,0,0-.35-.09h0s0,0,.06,0a.33.33,0,0,1,.26-.07h0a.82.82,0,0,1,.29.07c.09.06.16.12.16.19a.82.82,0,0,1,.06.22v.16a.31.31,0,0,1-.13.22.67.67,0,0,1-.19.16Zm-.39-.16a.18.18,0,0,1-.12,0s-.07,0-.1-.09,0-.07,0-.1v0a.14.14,0,0,0,0-.1v-.06l0,0s.06,0,.09-.07v0c.07,0,.1,0,.13,0a.44.44,0,0,1,.07.19.83.83,0,0,1,0,.22m.55.48a1.39,1.39,0,0,0,.35-.16.76.76,0,0,0,.28-.64.81.81,0,0,0-.28-.64,1.12,1.12,0,0,0-.67-.22h0a.69.69,0,0,0-.67.32.71.71,0,0,0-.16.57.87.87,0,0,0,.12.42.47.47,0,0,0,.23.19.21.21,0,0,0-.13.13l-.06.13V174l3.09-.09v-.38l-2.14.06H52"/><path class="cls-1" d="M56.71,172.51a.41.41,0,0,1-.1.22c-.06.06-.09.06-.09.06h0l0,0-.1,0a1.31,1.31,0,0,0,0-.32,1.13,1.13,0,0,0-.06-.32,1.11,1.11,0,0,0-.26-.45.69.69,0,0,0-.25-.19l.13,0a.9.9,0,0,1,.35.09.73.73,0,0,1,.35.48.44.44,0,0,1,0,.19v.2m-.77.31c-.06.16-.12.2-.16.2h-.09a.18.18,0,0,1-.16-.1,1.23,1.23,0,0,1-.22-.41,1.61,1.61,0,0,1,0-.45.31.31,0,0,1,.13-.26c.1,0,.16.07.26.13a.94.94,0,0,1,.22.42.6.6,0,0,1,.06.47m-1-.92v0a.39.39,0,0,0,0,.16v.26s0,.09,0,.12a.1.1,0,0,1-.06,0h-.22a.4.4,0,0,0-.19,0c-.07,0-.1,0-.16.07v0a1.16,1.16,0,0,1,0-.16c0-.07,0-.1,0-.13a.31.31,0,0,1,.16-.19.78.78,0,0,1,.32-.16H55s0,0,0,0m-.15,1.34s-.07.06-.1.06h0a.09.09,0,0,1-.1-.06l-.09-.1,0,0,0-.06a.26.26,0,0,1,0-.13s0-.06.07-.1h.09s.07,0,.07,0l0,0,0,0,0,0,0,0h0l0,.1h0v0s0,.1,0,.13m1.81-1.91a.89.89,0,0,0-.44-.1,2.63,2.63,0,0,0-.48.06l-.22.1-.1,0,0,0h-.23a1.28,1.28,0,0,0-.31.07l-.23.09-.22.13a1,1,0,0,0-.29.32,1.25,1.25,0,0,0,0,.92.91.91,0,0,0,.32.55.46.46,0,0,0,.32.12.22.22,0,0,0,.13,0,.61.61,0,0,0,.38-.29c0-.06,0-.12.06-.19l0,0a.54.54,0,0,0,.35.19h.1a.33.33,0,0,0,.19,0,.68.68,0,0,0,.48-.41l.16.29.1-.1.15-.06a.57.57,0,0,0,.29-.32.84.84,0,0,0,.1-.42,1,1,0,0,0,0-.31,1.14,1.14,0,0,0-.55-.67"/><polygon class="cls-1" points="60.86 169.6 61.4 171.2 60.51 171.49 59.96 169.86 59.52 170.02 60.19 171.93 61.91 171.36 61.27 169.44 60.86 169.6"/><path class="cls-1" d="M59.9,169.44h0c0,.07.09.1.22.13h.23l0,0a.67.67,0,0,0,.19-.19.39.39,0,0,0,0-.26l0-.06h0c-.07-.07-.13-.13-.19-.13s-.07,0-.13,0a.21.21,0,0,0-.13,0h0l-.06,0-.1.07h0c-.09.09-.09.19-.06.35Z"/><path class="cls-1" d="M63.31,170.43s-.06.07-.09.07h-.07a.09.09,0,0,1-.09,0,.38.38,0,0,1-.13-.16v-.16c0-.06,0-.09.06-.12h.1s.06,0,.06,0l.07.06v.07h0v.06h0l0,.06c.09,0,.09.1.06.13m-.76-1.53a.08.08,0,0,1,.09-.09h.07s0,0,.06,0a.28.28,0,0,1,.13.19v.16s0,.06-.1.09h-.06s-.07,0-.07,0l-.09-.09,0,0h0v-.22m.89.83a.82.82,0,0,0-.26-.06.67.67,0,0,0-.22,0,.45.45,0,0,0-.32.32.55.55,0,0,0,0,.38.71.71,0,0,0,.13.26.22.22,0,0,1-.13,0,1.15,1.15,0,0,1-.32-.19,1.34,1.34,0,0,1-.25-.48,1.59,1.59,0,0,1-.1-.54.48.48,0,0,1,.13-.38,0,0,0,0,1,0,0,.51.51,0,0,0,.07.28.45.45,0,0,0,.28.32.61.61,0,0,0,.23,0,.44.44,0,0,0,.19,0,.9.9,0,0,0,.38-.28.48.48,0,0,0,0-.48.56.56,0,0,0-.32-.35.49.49,0,0,0-.25-.07.92.92,0,0,0-.32.07,1.11,1.11,0,0,0-.73.63,1.3,1.3,0,0,0,0,1,1.28,1.28,0,0,0,.44.67,1.18,1.18,0,0,0,.61.23h.13a1.39,1.39,0,0,0,.83-.35.51.51,0,0,0,.09-.55.66.66,0,0,0-.35-.38"/><polygon class="cls-1" points="64.94 168.33 65.39 169.95 64.49 170.21 64.01 168.55 63.6 168.68 64.11 170.62 65.9 170.15 65.39 168.23 64.94 168.33"/><path class="cls-1" d="M68.23,169.06l-.07,0H68.1a0,0,0,0,0,0,0,.45.45,0,0,0,.19-.38.48.48,0,0,0-.19-.42.85.85,0,0,0-.38-.12h0s0,0,.06,0a.62.62,0,0,1,.26-.06.43.43,0,0,1,.31.1.56.56,0,0,1,.16.19.49.49,0,0,1,0,.22v.16a1.07,1.07,0,0,1-.13.19,1.24,1.24,0,0,1-.19.16Zm-.39-.16a.33.33,0,0,1-.13,0s-.06,0-.09-.09a.21.21,0,0,1,0-.13v-.1l0,0v0a.11.11,0,0,1,.09,0v0c.1,0,.13,0,.13.06a.39.39,0,0,1,0,.16c0,.07,0,.13,0,.16m.54.48a1,1,0,0,0,.36-.16.87.87,0,0,0,.31-.61.81.81,0,0,0-.25-.67.93.93,0,0,0-.7-.25h0a.71.71,0,0,0-.64.29,1,1,0,0,0-.19.57.8.8,0,0,0,.09.41.49.49,0,0,0,.23.2.22.22,0,0,0-.13.12l-.07.13v.32l3.13,0v-.38l-2.17,0c0,.06.06.06.06,0"/><path class="cls-1" d="M73.14,168.29s-.07,0-.13,0l-.26-.06-.28,1.66-.67-.13.25-1.66-.44-.09-.23,1.34a.31.31,0,0,1-.09.22s0,0-.1,0h-.06a.18.18,0,0,1-.1-.06.38.38,0,0,1,0-.19l.26-1.41H71l-.16,0-.25,1.34a.61.61,0,0,0,.06.57.57.57,0,0,0,.16.13l.06,0h.32v0l1.57.25.35-1.91Z"/><polygon class="cls-1" points="73.04 170.3 73.36 170.43 73.81 168.77 74.19 168.87 73.74 170.53 74.19 170.62 74.61 168.97 74.99 169.06 75.02 168.74 73.55 168.36 73.04 170.3"/><path class="cls-1" d="M74.19,168.36h0l.06,0h0a.52.52,0,0,0,.26-.06.36.36,0,0,0,.16-.23l0-.06h0a.38.38,0,0,0-.13-.26.26.26,0,0,0-.19-.09h-.22c-.07,0-.19.06-.26.25l0,.1h0a.32.32,0,0,0,.1.22.77.77,0,0,1,.22.1"/><path class="cls-1" d="M76.2,170.11a.75.75,0,0,1-.26.45c-.12.1-.19.13-.22.16h0a.68.68,0,0,0,.16-.26.45.45,0,0,0,0-.44.72.72,0,0,0-.45-.32c-.06,0-.09,0-.13,0h-.09l0-.07.1-.09a.54.54,0,0,1,.25-.16.44.44,0,0,1,.32,0c.19.06.29.12.35.25a.74.74,0,0,1,0,.51m-.83.26a.76.76,0,0,1-.09.16.14.14,0,0,1-.1,0h0a.21.21,0,0,1-.13-.13.28.28,0,0,1,0-.22h0v0a.1.1,0,0,1,.1-.1.11.11,0,0,1,.09,0h.07a.41.41,0,0,1,.12.09.9.9,0,0,1,0,.23m1.56.7-.63-.19.12-.1a1.06,1.06,0,0,0,.26-.48,1,1,0,0,0,0-.73.75.75,0,0,0-.29-.38A1.39,1.39,0,0,0,76,169a1.32,1.32,0,0,0-.32-.07,1,1,0,0,0-.32.07.91.91,0,0,0-.42.35,1.77,1.77,0,0,0-.12.19.37.37,0,0,0-.07.19l0,.19,0,.13v.32s0,.06,0,.06v0s0,.06,0,.09a.58.58,0,0,0,.35.29.54.54,0,0,0,.23,0,.48.48,0,0,0,.22-.06l-.06.12,1.37.42-.23.73.45.1.83-2.62-.41-.16Z"/><path class="cls-1" d="M80.92,171.77c.07.07.07.16,0,.32a.5.5,0,0,1-.29.35.42.42,0,0,1-.28.07.31.31,0,0,1-.19,0l-.23-.06a.66.66,0,0,0,.26-.06.68.68,0,0,0,.25-.35l.13-.42h0c.19.06.26.1.32.19m-1,.26s-.06,0-.1,0h-.09a.27.27,0,0,1-.22-.19.37.37,0,0,1,0-.29.28.28,0,0,1,.16-.22l.09,0a.21.21,0,0,1,.13,0l.35.09-.13.42c-.09.09-.13.16-.19.16m.22-1.31.23.06-.13.39L80,171.1Zm1.22.38.09-.35-1.5-.48-.22.74h-.13a.38.38,0,0,0-.25.12.74.74,0,0,0-.26.39.6.6,0,0,0,.06.51c.07.06.1.16.2.19h-.1a.6.6,0,0,0-.22.06.59.59,0,0,0-.23.19l0,.1h0c0,.06,0,.13,0,.16v0l0,0s0,.07.1.07l.06,0H79a.23.23,0,0,0,.12,0,.35.35,0,0,0,.16-.13h0l0-.16h0l.06,0a.28.28,0,0,1,.13,0l0,0h0l0,0h.16l.23.07.19,0,.09,0h.42l.16,0a1.07,1.07,0,0,0,.32-.16l.06,0,0-.07.07-.09v0s0,0,0-.07v-.06l0-.1a.18.18,0,0,0,0-.12v-.16a.66.66,0,0,0,0-.26h0a1.32,1.32,0,0,0-.29-.29h0a0,0,0,0,1,0,0H81l-.16-.06-.07,0,.13-.39Z"/><path class="cls-1" d="M84.49,172.47a.77.77,0,0,0-.22-.28A1.07,1.07,0,0,0,84,172h-.06l-.1,0h0l.06-.29.36.13.06-.36-1.5-.38-.48,2,.38.09.42-1.62.35.09L83,173.24l.45.09.22-.92,0,0h.09a.37.37,0,0,1,.26.16.43.43,0,0,1,.09.25V173h0v0l0,.09h0l0,.07,0,.06,0,.09s-.07.1-.16.2a.59.59,0,0,1-.42.12h-.19l-.1,0h0a1.83,1.83,0,0,1-.31-.06l-.13,0-.16-.07a.85.85,0,0,1-.29-.16.7.7,0,0,1-.32-.32,1.11,1.11,0,0,1,0-.63v0l0-.09.07-.13c.06-.06.09-.13.16-.16l.06,0,.06,0,.2-.07-.16-.32-.16.07-.07,0-.06.06-.06.07a.47.47,0,0,0-.2.22l-.06.07,0,.06,0,0,0,.06v.07l0,.19,0,.16v.32a1,1,0,0,0,.22.57,1.5,1.5,0,0,0,.42.32l.13.07,0,0,0,0h0l.1,0h.16l.19,0,.19,0,.19,0,.16,0h.1a1.19,1.19,0,0,0,.64-.16.49.49,0,0,0,.22-.19l0,0,0-.07.07-.09a.67.67,0,0,0,.06-.16c0-.07,0-.13.06-.16v-.35h0a2.48,2.48,0,0,1-.16-.39"/><path class="cls-1" d="M86.25,171.64a.25.25,0,0,0,.22.07h0c.13,0,.23-.07.26-.13a.29.29,0,0,0,.09-.22v-.07h0a.37.37,0,0,0-.15-.22.38.38,0,0,0-.26-.06.57.57,0,0,0-.19,0c-.1,0-.19.09-.19.32v.09a.43.43,0,0,0,.19.19"/><path class="cls-1" d="M87,173.4a.4.4,0,0,1-.16.16l-.06,0h-.45l0-.8v-.13a1,1,0,0,1,.07-.35c0-.06.06-.09.19-.09v0a.28.28,0,0,1,.19.09,1,1,0,0,1,.19.26A1.51,1.51,0,0,1,87,173a.5.5,0,0,1-.06.38m.26-1.18a.73.73,0,0,0-.64-.32h0a.52.52,0,0,0-.45.19.74.74,0,0,0-.19.54l0,1h-.42l0-1.69-.44,0-.07,2,1.73,0a.66.66,0,0,0,.44-.16.77.77,0,0,0,.23-.38l0-.1V173a1.4,1.4,0,0,0-.19-.76"/><path class="cls-1" d="M59,172l-.19.06-.29-.86h0v-.1a.72.72,0,0,1,0-.25c0-.1.13-.13.19-.16h.09a1,1,0,0,1,.26.06.77.77,0,0,1,.32.48l0,.13,0,.12v.16a.37.37,0,0,1-.16.23A1.06,1.06,0,0,0,59,172m-.26.7,0,.06s0,.06-.13.1l-.06.06-.1.06s0,0-.06,0h0l-.16,0h-.16V173a0,0,0,0,1,0,0l.13-.06v-.07a.19.19,0,0,0-.07-.12l0,0,0,0,.42-.12.06.06a.56.56,0,0,0,.19.09s0,0,0,0m.67-.32a.67.67,0,0,1-.06-.19l.13-.1.09-.09.07-.07a.6.6,0,0,0,.06-.22v-.23c0-.15,0-.28-.06-.38l0-.09,0-.1-.06-.1,0-.09h0a1.07,1.07,0,0,0-.26-.26,1.61,1.61,0,0,0-.35-.12h-.06a1.61,1.61,0,0,0-.35.06.15.15,0,0,0-.1.06s-.1.07-.13.1a.54.54,0,0,0-.19.32.9.9,0,0,0,0,.48l.29.89-.35.13-.54-1.63-.48.16.64,1.91.16-.06,0,0a.28.28,0,0,0-.09.26v.06l0,.07a.31.31,0,0,0,.32.25.22.22,0,0,0,.13,0l.22-.07.22-.06.19-.06.16-.1c.2-.09.26-.22.26-.29v-.19l.06,0c.19.22.45,0,.45,0l-.1-.29s-.12.1-.19.07"/><path class="cls-1" d="M179.94,134v-7.49h26V134c-.61.19-.67.16-.86-.45a16.69,16.69,0,0,0-1.12-2.8,4.47,4.47,0,0,0-3.64-2.49c-1.27-.1-2.58,0-3.89,0l0,.29V149.7c0,.54,0,1.08,0,1.66a2.31,2.31,0,0,0,2.3,2.45,14.32,14.32,0,0,0,1.75.1v.67H185.39v-.67a11.11,11.11,0,0,0,1.5-.1,5.61,5.61,0,0,0,1.63-.51,1.66,1.66,0,0,0,.83-1.34,14.72,14.72,0,0,0,.13-1.63V128.1c-1.76,0-3.51-.19-5.17.45a5.48,5.48,0,0,0-3,3.44,6.9,6.9,0,0,0-.41,1.41c-.23.73-.23.73-1,.6"/><path class="cls-1" d="M130,126.51H143.8v.7l-1.6.09c-1.82.16-2.26.9-1.53,2.65q3.21,7.37,6.48,14.74c.19.48.41,1,.67,1.5l.19-.26c2.17-4.75,4.34-9.47,6.5-14.22a7,7,0,0,0,.55-1.76,1.91,1.91,0,0,0-1.44-2.36,15.38,15.38,0,0,0-2.26-.41v-.61h9.44v.7c-2.46.45-3.51,2.46-4.47,4.5-2,4.24-4,8.52-6,12.79l-4.79,10.24c-.13.26-.19.51-.57.48s-.42-.26-.55-.48q-5.2-11.67-10.4-23.35c-.38-.86-.86-1.69-1.24-2.52a2.68,2.68,0,0,0-2.3-1.59c-.6-.13-.63-.16-.51-.83"/><path class="cls-1" d="M177.29,126.51v.67c-.64,0-1.24.06-1.85.12a2.2,2.2,0,0,0-2.17,2.33q-.09,1-.09,1.92v18c0,.61,0,1.25.06,1.85a2.23,2.23,0,0,0,2.14,2.3c.6.06,1.21.06,1.85.13v.67H162.14l0-.67c.6,0,1.18,0,1.72-.1a2.26,2.26,0,0,0,2.3-2.55c0-5,.06-10,.06-15.09,0-2.17,0-4.34-.1-6.54a2.19,2.19,0,0,0-2.1-2.33c-.61-.06-1.21-.09-1.85-.13v-.67h15.15Z"/><path class="cls-1" d="M209.41,125.23a2.18,2.18,0,0,0-2.16,2.26,2.21,2.21,0,0,0,2.16,2.27,2.26,2.26,0,0,0,2.17-2.27,2.21,2.21,0,0,0-2.17-2.26m.32-.22a2.81,2.81,0,0,1,1.5.92,2.57,2.57,0,0,1-.35,3.51,2.3,2.3,0,0,1-3.35-.38,2.56,2.56,0,0,1,.48-3.54,5.46,5.46,0,0,1,1.12-.51Z"/><path class="cls-1" d="M208.9,127.43l.42,0a.6.6,0,0,0,.51-.7.62.62,0,0,0-.67-.58l-.26.26c0,.35,0,.67,0,1.05m0,.06c-.1,1.15-.1,1.28.35,1.47h-1.06l.2-.57c0-.61,0-1.21,0-1.82a1.87,1.87,0,0,0-.2-.61c.51,0,1.09,0,1.66.13a.62.62,0,0,1,.51.61.69.69,0,0,1-.41.73l-.32.13c.35.48.67,1,1,1.4-.45.1-.48.1-.77-.32s-.38-.57-.57-.83Z"/><rect class="cls-1" x="98.02" y="156.87" width="137.65" height="1.05"/></svg>